<svg width="25" height="25" viewBox="0 0 25 25" fill="none" xmlns="http://www.w3.org/2000/svg">
<g clip-path="url(#clip0_39_218)">
<path d="M9.00391 22.011C9.55619 22.011 10.0039 21.5633 10.0039 21.011C10.0039 20.4587 9.55619 20.011 9.00391 20.011C8.45162 20.011 8.00391 20.4587 8.00391 21.011C8.00391 21.5633 8.45162 22.011 9.00391 22.011Z" stroke="#091C47" stroke-width="2" stroke-linecap="round" stroke-linejoin="round"/>
<path d="M20.0039 22.011C20.5562 22.011 21.0039 21.5633 21.0039 21.011C21.0039 20.4587 20.5562 20.011 20.0039 20.011C19.4516 20.011 19.0039 20.4587 19.0039 21.011C19.0039 21.5633 19.4516 22.011 20.0039 22.011Z" stroke="#091C47" stroke-width="2" stroke-linecap="round" stroke-linejoin="round"/>
<path d="M1.00391 1.01099H5.00391L7.68391 14.401C7.77535 14.8614 8.02581 15.2749 8.39145 15.5693C8.75709 15.8636 9.2146 16.02 9.68391 16.011H19.4039C19.8732 16.02 20.3307 15.8636 20.6964 15.5693C21.062 15.2749 21.3125 14.8614 21.4039 14.401L23.0039 6.01099H6.00391" stroke="#091C47" stroke-width="2" stroke-linecap="round" stroke-linejoin="round"/>
</g>
<defs>
<clipPath id="clip0_39_218">
<rect width="24" height="24" fill="white" transform="translate(0.00390625 0.0109863)"/>
</clipPath>
</defs>
</svg>
