<svg width="23" height="22" viewBox="0 0 23 22" fill="none" xmlns="http://www.w3.org/2000/svg">
<path d="M16.6351 0.908203H6.63513C3.87371 0.908203 1.63513 3.14678 1.63513 5.9082V15.9082C1.63513 18.6696 3.87371 20.9082 6.63513 20.9082H16.6351C19.3966 20.9082 21.6351 18.6696 21.6351 15.9082V5.9082C21.6351 3.14678 19.3966 0.908203 16.6351 0.908203Z" stroke="white" stroke-width="1.5" stroke-linecap="round" stroke-linejoin="round"/>
<path d="M15.6351 10.2785C15.7585 11.1108 15.6163 11.9607 15.2288 12.7075C14.8413 13.4543 14.2282 14.0599 13.4767 14.4382C12.7252 14.8164 11.8735 14.9481 11.0429 14.8144C10.2122 14.6808 9.44484 14.2886 8.84992 13.6937C8.255 13.0987 7.86282 12.3314 7.72915 11.5007C7.59549 10.6701 7.72715 9.8184 8.10541 9.06688C8.48367 8.31536 9.08927 7.70225 9.83607 7.31475C10.5829 6.92725 11.4328 6.78509 12.2651 6.9085C13.114 7.03439 13.8999 7.42997 14.5068 8.03681C15.1136 8.64365 15.5092 9.42958 15.6351 10.2785Z" stroke="white" stroke-width="1.5" stroke-linecap="round" stroke-linejoin="round"/>
<path d="M17.1351 5.4082H17.1451" stroke="white" stroke-width="2" stroke-linecap="round" stroke-linejoin="round"/>
</svg>
