<svg width="49" height="50" viewBox="0 0 49 50" fill="none" xmlns="http://www.w3.org/2000/svg">
<path d="M47.6562 2.27649V38.214C47.6562 38.6437 47.3047 38.9952 46.875 38.9952H35.1562V35.8702V32.7452V29.6202V24.9327H39.0625C39.4922 24.9327 39.8438 24.5812 39.8438 24.1515V9.62805C39.8438 9.42493 39.7578 9.2218 39.6172 9.08118L35.3828 4.8468C35.3203 4.7843 35.2422 4.72961 35.1562 4.69836V4.69055C35.0547 4.64368 34.9453 4.62024 34.8359 4.62024H28.9062V2.27649C28.9062 1.8468 29.2578 1.49524 29.6875 1.49524H46.875C47.3047 1.49524 47.6562 1.8468 47.6562 2.27649Z" fill="#E6E9ED"/>
<path d="M39.8438 9.62805V24.1515C39.8438 24.5812 39.4922 24.9327 39.0625 24.9327H35.1562V4.69836C35.2422 4.72961 35.3203 4.7843 35.3828 4.8468L39.6172 9.08118C39.7578 9.2218 39.8438 9.42493 39.8438 9.62805Z" fill="#FCD770"/>
<path d="M34.8359 4.62024H28.9062H25.7812H22.6562H1.5625C1.13281 4.62024 0.78125 4.9718 0.78125 5.40149V28.839C0.78125 29.2687 1.13281 29.6202 1.5625 29.6202H5.46875V47.589C5.46875 48.0187 5.82031 48.3702 6.25 48.3702H34.375C34.8047 48.3702 35.1562 48.0187 35.1562 47.589V4.69836V4.69055C35.0547 4.64368 34.9453 4.62024 34.8359 4.62024Z" fill="#FFEAA7"/>
<path d="M32.0312 33.5265V44.464C32.0312 44.8937 31.6797 45.2452 31.25 45.2452H20.3125C19.8828 45.2452 19.5312 44.8937 19.5312 44.464V33.5265C19.5312 33.0968 19.8828 32.7452 20.3125 32.7452H31.25C31.6797 32.7452 32.0312 33.0968 32.0312 33.5265Z" fill="#FF826E"/>
<path d="M28.9062 38.214V39.7765C28.9062 40.2062 28.5547 40.5577 28.125 40.5577H27.3438V41.339C27.3438 41.7687 26.9922 42.1202 26.5625 42.1202H25C24.5703 42.1202 24.2188 41.7687 24.2188 41.339V40.5577H23.4375C23.0078 40.5577 22.6562 40.2062 22.6562 39.7765V38.214C22.6562 37.7843 23.0078 37.4327 23.4375 37.4327H24.2188V36.6515C24.2188 36.2218 24.5703 35.8702 25 35.8702H26.5625C26.9922 35.8702 27.3438 36.2218 27.3438 36.6515V37.4327H28.125C28.5547 37.4327 28.9062 37.7843 28.9062 38.214Z" fill="#E6E9ED"/>
<path d="M14.8438 7.74524H22.6562V10.8702V11.6515V26.4952C21.6875 24.0812 19.5078 22.3624 16.9297 21.9952L15.625 21.8077L15.1797 20.0421V20.0343C16.1172 19.6749 16.8359 18.8781 17.0859 17.8937L17.1094 17.9015L17.6641 17.3702C18.375 16.6906 18.9141 15.8546 19.2266 14.9171C19.4297 14.3077 19.5312 13.6671 19.5312 13.0187V12.4327C19.5312 11.4171 19.2031 10.4327 18.5937 9.62024C18.1562 9.02649 17.5859 8.55774 16.9375 8.23743C16.2969 7.91711 15.5781 7.74524 14.8438 7.74524Z" fill="#E6E9ED"/>
<path d="M9.47656 17.8937C9.72656 18.8781 10.4453 19.6749 11.3828 20.0343V20.0421L10.9375 21.8077L9.63281 21.9952C7.05469 22.3624 4.875 24.0812 3.90625 26.4952V7.74524H11.7188C10.2422 7.74524 8.85156 8.44055 7.96875 9.62024C7.35937 10.4327 7.03125 11.4171 7.03125 12.4327V13.0187C7.03125 13.6671 7.13281 14.3077 7.33594 14.9171C7.64844 15.8546 8.1875 16.6906 8.89844 17.3702L9.45313 17.9015L9.47656 17.8937Z" fill="#E6E9ED"/>
<path d="M3.90625 26.4952C4.875 24.0812 7.05469 22.3624 9.63281 21.9952L10.9375 21.8077L11.0234 21.9718C11.4453 22.8312 12.3203 23.3702 13.2812 23.3702C14.2422 23.3702 15.1172 22.8312 15.5391 21.9718L15.625 21.8077L16.9297 21.9952C19.5078 22.3624 21.6875 24.0812 22.6562 26.4952H3.90625Z" fill="#5CD6B3"/>
<path d="M7.33594 14.9171C7.13281 14.3077 7.03125 13.6671 7.03125 13.0187V12.4327C7.03125 11.4171 7.35937 10.4327 7.96875 9.62024C8.85156 8.44055 10.2422 7.74524 11.7188 7.74524H14.8438C15.5781 7.74524 16.2969 7.91711 16.9375 8.23743C17.5859 8.55774 18.1562 9.02649 18.5937 9.62024C19.2031 10.4327 19.5312 11.4171 19.5312 12.4327V13.0187C19.5312 13.6671 19.4297 14.3077 19.2266 14.9171C18.9141 15.8546 18.375 16.6906 17.6641 17.3702L17.1094 17.9015L17.0859 17.8937C17.1563 17.6515 17.1875 17.3859 17.1875 17.1202V15.9406C17.1875 15.2609 16.7109 14.6827 16.0469 14.5499C15.1563 14.3702 14.3281 14.0187 13.5937 13.5265C12.8594 13.0343 12.2188 12.4015 11.7188 11.6515L10.7656 12.2843C9.89844 12.8624 9.375 13.839 9.375 14.8859V17.1202C9.375 17.3859 9.40625 17.6515 9.47656 17.8937L9.45313 17.9015L8.89844 17.3702C8.1875 16.6906 7.64844 15.8546 7.33594 14.9171Z" fill="#656D78"/>
<path d="M14.0625 20.2452C14.4531 20.2452 14.8359 20.1749 15.1797 20.0343V20.0421L15.625 21.8077L15.5391 21.9718C15.1172 22.8312 14.2422 23.3702 13.2812 23.3702C12.3203 23.3702 11.4453 22.8312 11.0234 21.9718L10.9375 21.8077L11.3828 20.0421V20.0343C11.7266 20.1749 12.1016 20.2452 12.5 20.2452H14.0625Z" fill="#F0D0B4"/>
<path d="M17.1875 15.9406V17.1202C17.1875 17.3859 17.1563 17.6515 17.0859 17.8937C16.8359 18.8781 16.1172 19.6749 15.1797 20.0343C14.8359 20.1749 14.4531 20.2452 14.0625 20.2452H12.5C12.1016 20.2452 11.7266 20.1749 11.3828 20.0343C10.4453 19.6749 9.72656 18.8781 9.47656 17.8937C9.40625 17.6515 9.375 17.3859 9.375 17.1202V14.8859C9.375 13.839 9.89844 12.8624 10.7656 12.2843L11.7188 11.6515C12.2188 12.4015 12.8594 13.0343 13.5937 13.5265C14.3281 14.0187 15.1563 14.3702 16.0469 14.5499C16.7109 14.6827 17.1875 15.2609 17.1875 15.9406Z" fill="#F0D0B4"/>
<path d="M28.125 36.6515C28.125 35.7898 27.4242 35.089 26.5625 35.089H25C24.1383 35.089 23.4375 35.7898 23.4375 36.6515C22.5758 36.6515 21.875 37.3523 21.875 38.214V39.7765C21.875 40.6382 22.5758 41.339 23.4375 41.339C23.4375 42.2007 24.1383 42.9015 25 42.9015H26.5625C27.4242 42.9015 28.125 42.2007 28.125 41.339C28.9867 41.339 29.6875 40.6382 29.6875 39.7765V38.214C29.6875 37.3523 28.9867 36.6515 28.125 36.6515ZM28.125 39.7765H26.5625V41.339H25V39.7765H23.4375V38.214H25V36.6515H26.5625V38.214L28.125 38.2163V39.7765Z" fill="black"/>
<path d="M31.25 31.964H20.3125C19.4508 31.964 18.75 32.6648 18.75 33.5265V44.464C18.75 45.3257 19.4508 46.0265 20.3125 46.0265H31.25C32.1117 46.0265 32.8125 45.3257 32.8125 44.464V33.5265C32.8125 32.6648 32.1117 31.964 31.25 31.964ZM20.3125 44.464V33.5265H31.25L31.2508 44.464H20.3125Z" fill="black"/>
<path d="M7.8125 44.464H9.375V46.0265H7.8125V44.464Z" fill="black"/>
<path d="M10.9375 44.464H12.5V46.0265H10.9375V44.464Z" fill="black"/>
<path d="M14.0625 44.464H15.625V46.0265H14.0625V44.464Z" fill="black"/>
<path d="M7.8125 41.339H12.5V42.9015H7.8125V41.339Z" fill="black"/>
<path d="M7.8125 38.214H15.625V39.7765H7.8125V38.214Z" fill="black"/>
<path d="M7.8125 35.089H15.625V36.6515H7.8125V35.089Z" fill="black"/>
<path d="M7.8125 31.964H10.9375V33.5265H7.8125V31.964Z" fill="black"/>
<path d="M12.5 31.964H15.625V33.5265H12.5V31.964Z" fill="black"/>
<path d="M46.875 0.713989H29.6875C28.8258 0.713989 28.125 1.41477 28.125 2.27649V3.83899H26.5625V2.27649C26.5625 1.41477 25.8617 0.713989 25 0.713989H23.4375C22.5758 0.713989 21.875 1.41477 21.875 2.27649V3.83899H1.5625C0.700781 3.83899 0 4.53977 0 5.40149V28.839C0 29.7007 0.700781 30.4015 1.5625 30.4015H4.6875V47.589C4.6875 48.4507 5.38828 49.1515 6.25 49.1515H34.375C35.2367 49.1515 35.9375 48.4507 35.9375 47.589V39.7765H46.875C47.7367 39.7765 48.4375 39.0757 48.4375 38.214V2.27649C48.4375 1.41477 47.7367 0.713989 46.875 0.713989ZM23.4375 2.27649H25V3.83899H23.4375V2.27649ZM6.25 47.589V30.4015H25C25.8617 30.4015 26.5625 29.7007 26.5625 28.839V14.7765H25V28.839H1.5625V5.40149H21.875V6.96399H3.125V27.2765H23.4375V14.7765H21.875V23.8171C20.6289 22.4366 18.9313 21.4913 17.0398 21.221L16.2555 21.1085L16.0891 20.4437C16.8594 19.9726 17.4453 19.2452 17.743 18.3781L18.2055 17.9366C19.0063 17.1741 19.6148 16.2163 19.9641 15.1679C20.1953 14.4749 20.3125 13.7523 20.3125 13.0202V12.4327C20.3125 11.257 19.9242 10.0913 19.2188 9.15149C19.0492 8.92571 18.8586 8.72102 18.6586 8.52649H21.875V11.6515C21.875 12.5132 22.5758 13.214 23.4375 13.214H25C25.8617 13.214 26.5625 12.5132 26.5625 11.6515V6.96399H25V11.6515H23.4375V5.40149H34.375V47.589H6.25ZM17.9688 10.089C18.4727 10.7601 18.75 11.5929 18.75 12.4327V13.0202C18.75 13.5835 18.6602 14.1398 18.482 14.6726C18.3516 15.0632 18.1727 15.4366 17.9547 15.7851C17.8844 14.8062 17.1719 13.9757 16.1961 13.7804C14.6188 13.4648 13.2602 12.5546 12.3688 11.2171L11.9352 10.5671L10.3328 11.6351C9.24375 12.3616 8.59375 13.5765 8.59375 14.8866V15.7616C8.38281 15.4195 8.20781 15.0554 8.08047 14.6734C7.90234 14.1398 7.8125 13.5843 7.8125 13.0202V12.4327C7.8125 11.5929 8.08984 10.7601 8.59375 10.089C9.32734 9.11086 10.4961 8.52649 11.7188 8.52649H14.8438C16.0664 8.52649 17.2352 9.11086 17.9688 10.089ZM6.59844 15.1671C6.94766 16.2163 7.55625 17.1741 8.35625 17.9359L8.81953 18.3773C9.11719 19.2445 9.70312 19.9718 10.4734 20.4429L10.307 21.1077L9.52266 21.2202C7.63125 21.4906 5.93359 22.4359 4.6875 23.8171V8.52649H7.90391C7.70391 8.72102 7.51328 8.92571 7.34375 9.15149C6.63828 10.0913 6.25 11.257 6.25 12.4327V13.0202C6.25 13.7523 6.36719 14.4749 6.59844 15.1671ZM9.74453 22.7671L10.5188 22.657C11.1258 23.5859 12.1508 24.1515 13.2812 24.1515C14.4117 24.1515 15.4367 23.5859 16.0437 22.657L16.818 22.7671C18.7063 23.0366 20.357 24.1366 21.3648 25.714H5.19766C6.20547 24.1366 7.85625 23.0366 9.74453 22.7671ZM14.7922 21.6984C14.4828 22.246 13.9164 22.589 13.2812 22.589C12.6461 22.589 12.0797 22.246 11.7703 21.6976L11.9523 20.971C12.1328 20.9968 12.3125 21.0265 12.5 21.0265H14.0625C14.25 21.0265 14.4297 20.9968 14.6109 20.971L14.7922 21.6984ZM14.0625 19.464H12.5C11.2078 19.464 10.1562 18.4124 10.1562 17.1202V14.8866C10.1562 14.1007 10.5461 13.3726 11.2 12.9366L11.5352 12.7132C12.6406 14.0546 14.1617 14.9687 15.8914 15.314C16.1898 15.3734 16.4062 15.6382 16.4062 15.9421V17.1202C16.4062 18.4124 15.3547 19.464 14.0625 19.464ZM35.9375 6.50618L39.0625 9.63118V24.1515H35.9375V6.50618ZM46.875 38.214H35.9375V36.6515H39.0625V35.089H35.9375V33.5265H45.3125V31.964H35.9375V30.4015H45.3125V28.839H35.9375V25.714H39.0625C39.9242 25.714 40.625 25.0132 40.625 24.1515V9.63118C40.625 9.21399 40.4625 8.8218 40.1672 8.52649L35.9375 4.2968C35.6469 4.0054 35.2437 3.83899 34.8328 3.83899H29.6875V2.27649H46.875V38.214Z" fill="black"/>
<path d="M40.625 35.089H45.3125V36.6515H40.625V35.089Z" fill="black"/>
<path d="M42.1875 25.714H45.3125V27.2765H42.1875V25.714Z" fill="black"/>
</svg>
