<svg width="51" height="51" viewBox="0 0 51 51" fill="none" xmlns="http://www.w3.org/2000/svg">
<g clip-path="url(#clip0_214_1104)">
<path d="M24.2227 12.9184C24.2277 12.9392 24.2343 12.9584 24.2385 12.9792C24.2343 12.9592 24.2277 12.9392 24.2227 12.9184Z" fill="#D45B5B"/>
<path d="M22.7277 20.205L18.5527 26.7658H21.8861V21.5275L22.7277 20.205Z" fill="#E4D9B3"/>
<path d="M24.332 13.5134C24.337 13.5492 24.3445 13.5842 24.3487 13.6209C24.3454 13.5842 24.337 13.5492 24.332 13.5134Z" fill="#D45B5B"/>
<path d="M24.0547 12.3425C24.0564 12.3467 24.0572 12.35 24.0589 12.3542C24.058 12.35 24.0564 12.3467 24.0547 12.3425Z" fill="#D45B5B"/>
<path d="M12.7894 41.5351C12.2002 41.1417 11.5086 40.9326 10.8002 40.9326H7.7194L9.38607 45.0992L7.7194 46.7659L6.05273 45.0992L7.7194 40.9326H4.63857C3.93107 40.9326 3.23857 41.1417 2.6494 41.5351C1.6519 42.2001 1.05273 43.3192 1.05273 44.5184V50.0992H14.3861V44.5184C14.3861 43.3192 13.7869 42.2001 12.7894 41.5351Z" fill="#B3D5E4"/>
<path d="M12.7188 35.9325L8.55208 33.4325C7.71875 35.9325 2.71875 35.9325 2.71875 35.9325C2.71875 38.6942 5.95125 40.9325 7.71875 40.9325C9.48625 40.9325 12.7188 38.6942 12.7188 35.9325Z" fill="white"/>
<path d="M8.55208 33.4325L12.7188 35.9325C12.7188 33.1708 11.8854 30.0992 7.71875 30.0992C3.55208 30.0992 2.71875 33.1708 2.71875 35.9325C2.71875 35.9325 7.71875 35.9325 8.55208 33.4325Z" fill="#B3D5E4"/>
<path d="M7.7194 46.7659L9.38607 45.0992L7.7194 40.9326L6.05273 45.0992L7.7194 46.7659Z" fill="#D45B5B"/>
<path d="M30.2894 41.5351C29.7002 41.1417 29.0086 40.9326 28.3002 40.9326H25.2194L26.8861 45.0992L25.2194 46.7659L23.5527 45.0992L25.2194 40.9326H22.1386C21.4311 40.9326 20.7386 41.1417 20.1494 41.5351C19.1519 42.2001 18.5527 43.3192 18.5527 44.5184V50.0992H31.8861V44.5184C31.8861 43.3192 31.2869 42.2001 30.2894 41.5351Z" fill="#B3D5E4"/>
<path d="M30.2188 35.9325L26.0521 33.4325C25.2188 35.9325 20.2188 35.9325 20.2188 35.9325C20.2188 38.6942 23.4512 40.9325 25.2188 40.9325C26.9862 40.9325 30.2188 38.6942 30.2188 35.9325Z" fill="white"/>
<path d="M26.0521 33.4325L30.2188 35.9325C30.2188 33.1708 29.3854 30.0992 25.2188 30.0992C21.0521 30.0992 20.2188 33.1708 20.2188 35.9325C20.2188 35.9325 25.2188 35.9325 26.0521 33.4325Z" fill="#B3D5E4"/>
<path d="M25.2194 46.7659L26.8861 45.0992L25.2194 40.9326L23.5527 45.0992L25.2194 46.7659Z" fill="#D45B5B"/>
<path d="M47.7894 41.535C47.2002 41.1417 46.5086 40.9325 45.8002 40.9325H42.7194L44.3861 45.0992L42.7194 46.7658L41.0527 45.0992L42.7194 40.9325H39.6386C38.9311 40.9325 38.2386 41.1417 37.6494 41.535C36.6519 42.2 36.0527 43.3192 36.0527 44.5183V50.0992H49.3861V44.5183C49.3861 43.3192 48.7869 42.2 47.7894 41.535Z" fill="#B3D5E4"/>
<path d="M43.5521 33.4325L47.7188 35.9325C47.7188 33.1708 46.8854 30.0992 42.7188 30.0992C38.5521 30.0992 37.7188 33.1708 37.7188 35.9325C37.7188 35.9325 42.7188 35.9325 43.5521 33.4325Z" fill="#B3D5E4"/>
<path d="M47.7188 35.9325L43.5521 33.4325C42.7188 35.9325 37.7188 35.9325 37.7188 35.9325C37.7188 38.6942 40.9512 40.9325 42.7188 40.9325C44.4862 40.9325 47.7188 38.6942 47.7188 35.9325Z" fill="white"/>
<path d="M42.7194 46.7659L44.3861 45.0992L42.7194 40.9326L41.0527 45.0992L42.7194 46.7659Z" fill="#D45B5B"/>
<path d="M29.3848 11.7659H23.8164C23.9056 11.9534 23.9856 12.145 24.0548 12.3425C24.0564 12.3467 24.0573 12.35 24.0589 12.3542C24.1231 12.5384 24.1773 12.7267 24.2231 12.9184C24.2281 12.9392 24.2339 12.9584 24.2389 12.9792C24.2781 13.1542 24.3081 13.3325 24.3314 13.5134C24.3364 13.5492 24.3439 13.5842 24.3481 13.6209C24.3706 13.8325 24.3848 14.0475 24.3848 14.2659V14.51C24.3848 16.5275 23.8098 18.5025 22.7264 20.205L21.8848 21.5275V26.7659H29.3848V15.0992V11.7659ZM23.5514 24.2659H25.2181H23.5514ZM23.5514 21.7659H25.2181H23.5514ZM26.0514 24.2659H27.7181H26.0514ZM26.0514 21.7659H27.7181H26.0514ZM26.0514 19.2659H27.7181H26.0514ZM26.0514 16.7659H27.7181H26.0514ZM26.0514 14.2659H27.7181H26.0514Z" fill="#E4D9B3"/>
<path d="M37.7181 15.0992H29.3848V26.7659H31.8848V22.5992H35.2181V26.7659H37.7181V15.0992ZM30.2181 20.0992H31.8848H30.2181ZM30.2181 17.5992H31.8848H30.2181ZM32.7181 20.0992H34.3848H32.7181ZM32.7181 17.5992H34.3848H32.7181ZM35.2181 20.0992H36.8848H35.2181ZM35.2181 17.5992H36.8848H35.2181Z" fill="#E4D9B3"/>
<path d="M35.2181 22.5992H31.8848V26.7659H35.2181V22.5992Z" fill="#E4D9B3"/>
<path d="M24.3854 14.51V14.2659C24.3854 14.0475 24.3721 13.8325 24.3479 13.6209C24.3438 13.5842 24.3363 13.5492 24.3313 13.5134C24.3071 13.3334 24.2788 13.1542 24.2388 12.9792C24.2338 12.9584 24.2279 12.9392 24.2229 12.9184C24.1771 12.7267 24.1229 12.5384 24.0588 12.3542C24.0571 12.35 24.0563 12.3467 24.0546 12.3425C23.9854 12.145 23.9054 11.9525 23.8162 11.7659C22.8554 9.7467 20.7738 8.36337 18.3721 8.43503C15.1804 8.53087 12.7188 11.3167 12.7188 14.51C12.7188 16.5275 13.2937 18.5025 14.3771 20.205L18.5521 26.7659L22.7271 20.205C23.8104 18.5034 24.3854 16.5275 24.3854 14.51ZM18.5521 16.7659C17.1713 16.7659 16.0521 15.6467 16.0521 14.2659C16.0521 12.885 17.1713 11.7659 18.5521 11.7659C19.9329 11.7659 21.0521 12.885 21.0521 14.2659C21.0521 15.6467 19.9329 16.7659 18.5521 16.7659Z" fill="#D45B5B"/>
<path d="M24.0586 12.3542C24.1228 12.5384 24.1769 12.7267 24.2228 12.9184C24.1778 12.7267 24.1228 12.5384 24.0586 12.3542Z" fill="#D45B5B"/>
<path d="M24.3477 13.6209C24.3718 13.8325 24.3852 14.0475 24.3852 14.2659C24.3852 14.0475 24.371 13.8325 24.3477 13.6209Z" fill="#D45B5B"/>
<path d="M24.0547 12.3425C23.9856 12.145 23.9056 11.9525 23.8164 11.7659C23.9056 11.9534 23.9856 12.1459 24.0547 12.3425Z" fill="#D45B5B"/>
<path d="M24.2383 12.9792C24.2783 13.1542 24.3066 13.3325 24.3308 13.5134C24.3074 13.3325 24.2783 13.1542 24.2383 12.9792Z" fill="#D45B5B"/>
<path d="M18.5527 16.7659C19.9334 16.7659 21.0527 15.6466 21.0527 14.2659C21.0527 12.8852 19.9334 11.7659 18.5527 11.7659C17.172 11.7659 16.0527 12.8852 16.0527 14.2659C16.0527 15.6466 17.172 16.7659 18.5527 16.7659Z" fill="#E4D9B3"/>
<path d="M13.2512 40.8417C12.6788 40.4592 12.0312 40.225 11.3554 40.14C12.5913 39.0692 13.5521 37.5692 13.5521 35.9325C13.5521 30.4225 10.3796 29.2659 7.71875 29.2659C5.05792 29.2659 1.88542 30.4225 1.88542 35.9325C1.88542 37.5692 2.84625 39.0692 4.08292 40.14C3.40708 40.225 2.75875 40.4592 2.18708 40.8417C0.954583 41.6625 0.21875 43.0367 0.21875 44.5184V50.0992C0.21875 50.56 0.59125 50.9325 1.05208 50.9325H14.3854C14.8462 50.9325 15.2188 50.56 15.2188 50.0992V44.5184C15.2188 43.0367 14.4829 41.6625 13.2512 40.8417ZM7.71875 43.1759L8.40708 44.8975L7.71875 45.5875L7.03042 44.8984L7.71875 43.1759ZM3.66792 36.7225C5.09458 36.605 7.67042 36.1734 8.86792 34.5934L11.8462 36.3809C11.5121 38.4217 8.99792 40.0992 7.71875 40.0992C6.51125 40.0992 4.20542 38.6059 3.66792 36.7225ZM7.71875 30.9325C10.0837 30.9325 11.3829 32.0509 11.7579 34.3842L8.98125 32.7184C8.76375 32.5884 8.50042 32.5634 8.26375 32.6517C8.02625 32.7384 7.84208 32.93 7.76208 33.1692C7.34042 34.4342 5.06375 34.9125 3.59875 35.0517C3.82125 32.2575 5.13875 30.9325 7.71875 30.9325ZM13.5521 49.2659H1.88542V44.5184C1.88542 43.5959 2.34375 42.7392 3.11125 42.2284C3.56458 41.925 4.09208 41.7659 4.63792 41.7659H6.48792L5.27792 44.79C5.15458 45.0992 5.22708 45.4525 5.46292 45.6884L7.12958 47.355C7.29208 47.5175 7.50542 47.5992 7.71875 47.5992C7.93208 47.5992 8.14542 47.5175 8.30792 47.355L9.97458 45.6884C10.2104 45.4525 10.2829 45.0992 10.1596 44.79L8.94958 41.7659H10.7996C11.3446 41.7659 11.8729 41.925 12.3263 42.2284C13.0938 42.7392 13.5521 43.595 13.5521 44.5184V49.2659Z" fill="#23374E"/>
<path d="M30.7512 40.8417C30.1788 40.4592 29.5312 40.225 28.8554 40.14C30.0912 39.0692 31.0521 37.5692 31.0521 35.9325C31.0521 30.4225 27.8796 29.2659 25.2188 29.2659C22.5579 29.2659 19.3854 30.4225 19.3854 35.9325C19.3854 37.5692 20.3462 39.0692 21.5829 40.14C20.9071 40.225 20.2587 40.4592 19.6871 40.8417C18.4546 41.6625 17.7188 43.0367 17.7188 44.5184V50.0992C17.7188 50.56 18.0913 50.9325 18.5521 50.9325H31.8854C32.3462 50.9325 32.7188 50.56 32.7188 50.0992V44.5184C32.7188 43.0367 31.9829 41.6625 30.7512 40.8417ZM25.2188 43.1759L25.9071 44.8975L25.2188 45.5875L24.5304 44.8984L25.2188 43.1759ZM21.1679 36.7225C22.5946 36.605 25.1704 36.1734 26.3679 34.5934L29.3462 36.3809C29.0121 38.4217 26.4979 40.0992 25.2188 40.0992C24.0113 40.0992 21.7054 38.6059 21.1679 36.7225ZM25.2188 30.9325C27.5837 30.9325 28.8829 32.0509 29.2579 34.3842L26.4812 32.7184C26.2646 32.5884 26.0004 32.5634 25.7637 32.6517C25.5262 32.7384 25.3421 32.93 25.2621 33.1692C24.8404 34.4342 22.5637 34.9125 21.0987 35.0517C21.3212 32.2575 22.6388 30.9325 25.2188 30.9325ZM31.0521 49.2659H19.3854V44.5184C19.3854 43.5959 19.8438 42.7392 20.6113 42.2284C21.0646 41.925 21.5921 41.7659 22.1379 41.7659H23.9879L22.7779 44.79C22.6546 45.0992 22.7262 45.4525 22.9629 45.6884L24.6296 47.355C24.7921 47.5175 25.0054 47.5992 25.2188 47.5992C25.4321 47.5992 25.6454 47.5175 25.8079 47.355L27.4746 45.6884C27.7104 45.4525 27.7829 45.0992 27.6596 44.79L26.4496 41.7659H28.2996C28.8446 41.7659 29.3729 41.925 29.8262 42.2284C30.5937 42.7392 31.0521 43.595 31.0521 44.5184V49.2659Z" fill="#23374E"/>
<path d="M48.2512 40.8417C47.6788 40.4592 47.0312 40.225 46.3554 40.14C47.5912 39.0692 48.5521 37.5692 48.5521 35.9325C48.5521 30.4225 45.3796 29.2659 42.7188 29.2659C40.0579 29.2659 36.8854 30.4225 36.8854 35.9325C36.8854 37.5692 37.8463 39.0692 39.0829 40.14C38.4071 40.225 37.7587 40.4592 37.1871 40.8417C35.9546 41.6625 35.2188 43.0367 35.2188 44.5184V50.0992C35.2188 50.56 35.5913 50.9325 36.0521 50.9325H49.3854C49.8462 50.9325 50.2188 50.56 50.2188 50.0992V44.5184C50.2188 43.0367 49.4829 41.6625 48.2512 40.8417ZM42.7188 43.1759L43.4071 44.8975L42.7188 45.5875L42.0304 44.8984L42.7188 43.1759ZM38.6679 36.7225C40.0946 36.605 42.6704 36.1734 43.8679 34.5934L46.8462 36.3809C46.5121 38.4217 43.9979 40.0992 42.7188 40.0992C41.5113 40.0992 39.2054 38.6059 38.6679 36.7225ZM42.7188 30.9325C45.0837 30.9325 46.3829 32.0509 46.7579 34.3842L43.9812 32.7184C43.7646 32.5884 43.5004 32.5634 43.2637 32.6517C43.0262 32.7384 42.8421 32.93 42.7621 33.1692C42.3404 34.4342 40.0637 34.9125 38.5987 35.0517C38.8212 32.2575 40.1388 30.9325 42.7188 30.9325ZM48.5521 49.2659H36.8854V44.5184C36.8854 43.5959 37.3438 42.7392 38.1113 42.2284C38.5646 41.925 39.0921 41.7659 39.6379 41.7659H41.4879L40.2779 44.79C40.1546 45.0992 40.2262 45.4525 40.4629 45.6884L42.1296 47.355C42.2921 47.5175 42.5054 47.5992 42.7188 47.5992C42.9321 47.5992 43.1454 47.5175 43.3079 47.355L44.9746 45.6884C45.2104 45.4525 45.2829 45.0992 45.1596 44.79L43.9496 41.7659H45.7996C46.3446 41.7659 46.8729 41.925 47.3262 42.2284C48.0937 42.7392 48.5521 43.595 48.5521 44.5184V49.2659Z" fill="#23374E"/>
<path d="M16.0514 27.5992H21.8848H29.3848H31.8848H35.2181H37.7181H39.3848V25.9325H38.5514V15.0992C38.5514 14.6384 38.1789 14.2659 37.7181 14.2659H30.2181V11.7659C30.2181 11.305 29.8456 10.9325 29.3848 10.9325H24.3223C24.0173 10.4075 23.6431 9.91755 23.1948 9.48172C21.8906 8.21505 20.1814 7.56088 18.3481 7.60172C14.7839 7.70922 11.8848 10.8092 11.8848 14.5109C11.8848 16.69 12.5031 18.8142 13.6731 20.6525L17.0331 25.9325H16.0514V27.5992ZM32.7181 25.9325V23.4325H34.3848V25.9325H32.7181ZM36.8848 15.9325V16.7659H35.2181V18.4325H36.8848V19.2659H35.2181V20.9325H36.8848V25.9325H36.0514V22.5992C36.0514 22.1384 35.6789 21.7659 35.2181 21.7659H31.8848C31.4239 21.7659 31.0514 22.1384 31.0514 22.5992V25.9325H30.2181V20.9325H31.8848V19.2659H30.2181V18.4325H31.8848V16.7659H30.2181V15.9325H36.8848ZM25.0048 12.5992H28.5514V15.0992V25.9325H22.7181V21.77L23.4298 20.6525C23.5764 20.4225 23.7139 20.1884 23.8423 19.95C24.7448 18.2825 25.2181 16.4176 25.2181 14.5109V14.51V14.2659C25.2181 14.0009 25.1981 13.74 25.1681 13.4809C25.1614 13.4234 25.1506 13.3667 25.1423 13.3092C25.1106 13.0892 25.0689 12.8717 25.0156 12.6575C25.0114 12.6384 25.0098 12.6184 25.0048 12.5992ZM13.5514 14.5109C13.5514 11.7 15.7248 9.34838 18.3973 9.26838C18.4489 9.26672 18.4998 9.26588 18.5514 9.26588C19.8606 9.26588 21.0923 9.76422 22.0339 10.6775C22.4656 11.0967 22.8064 11.5817 23.0589 12.1067C23.0614 12.1125 23.0623 12.1184 23.0648 12.1234C23.2256 12.4609 23.3464 12.8084 23.4273 13.1642C23.4281 13.1675 23.4289 13.1709 23.4298 13.1742C23.4656 13.3334 23.4914 13.4934 23.5114 13.655C23.5139 13.6784 23.5198 13.7017 23.5223 13.725C23.5406 13.9042 23.5514 14.0842 23.5514 14.2659V14.51C23.5514 16.1392 23.1473 17.7325 22.3756 19.1575C22.2656 19.3609 22.1481 19.5609 22.0231 19.7575L21.1814 21.08V21.0809L18.5514 25.2142L15.0798 19.7575C14.0798 18.1867 13.5514 16.3726 13.5514 14.5109ZM21.0514 24.3892V25.9325H20.0698L21.0514 24.3892Z" fill="#23374E"/>
<path d="M27.7194 13.4325H26.0527V15.0992H27.7194V13.4325Z" fill="#23374E"/>
<path d="M34.3854 16.7659H32.7188V18.4325H34.3854V16.7659Z" fill="#23374E"/>
<path d="M34.3854 19.2659H32.7188V20.9325H34.3854V19.2659Z" fill="#23374E"/>
<path d="M27.7194 15.9325H26.0527V17.5992H27.7194V15.9325Z" fill="#23374E"/>
<path d="M27.7194 18.4325H26.0527V20.0992H27.7194V18.4325Z" fill="#23374E"/>
<path d="M25.2194 20.9325H23.5527V22.5992H25.2194V20.9325Z" fill="#23374E"/>
<path d="M27.7194 20.9325H26.0527V22.5992H27.7194V20.9325Z" fill="#23374E"/>
<path d="M25.2194 23.4325H23.5527V25.0992H25.2194V23.4325Z" fill="#23374E"/>
<path d="M27.7194 23.4325H26.0527V25.0992H27.7194V23.4325Z" fill="#23374E"/>
<path d="M3.70117 20.0375L5.35617 20.2325C5.41617 19.7192 5.49951 19.1975 5.60117 18.6825L3.96534 18.36C3.85534 18.9167 3.76701 19.4809 3.70117 20.0375Z" fill="#23374E"/>
<path d="M5.54297 13.5175L7.05464 14.2175C7.27547 13.7409 7.5163 13.27 7.7688 12.8209L6.31714 12.0025C6.04214 12.49 5.7813 13 5.54297 13.5175Z" fill="#23374E"/>
<path d="M11.643 7.91087L10.5122 6.68671C10.098 7.06921 9.69388 7.47337 9.31055 7.88837L10.5347 9.01921C10.888 8.63754 11.2614 8.26421 11.643 7.91087Z" fill="#23374E"/>
<path d="M4.36523 16.7059L5.96857 17.1584C6.1094 16.6609 6.27273 16.1584 6.45523 15.665L4.89107 15.0884C4.69357 15.6217 4.5169 16.1659 4.36523 16.7059Z" fill="#23374E"/>
<path d="M7.20703 10.555L8.59203 11.4825C8.8812 11.05 9.19203 10.6234 9.51536 10.2142L8.2087 9.18088C7.85786 9.62421 7.5212 10.0867 7.20703 10.555Z" fill="#23374E"/>
<path d="M40.9043 10.19C41.2268 10.5959 41.5385 11.0225 41.831 11.4575L43.2126 10.5267C42.896 10.0567 42.5593 9.59503 42.211 9.15503L40.9043 10.19Z" fill="#23374E"/>
<path d="M37.2308 4.56421L36.3066 5.95088C36.7366 6.23754 37.1633 6.54754 37.5766 6.87254L38.6066 5.56254C38.1591 5.21088 37.6966 4.87421 37.2308 4.56421Z" fill="#23374E"/>
<path d="M34.265 2.90588L33.5684 4.41922C34.0392 4.63672 34.5109 4.87672 34.9684 5.13088L35.7809 3.67588C35.2859 3.40088 34.7767 3.14088 34.265 2.90588Z" fill="#23374E"/>
<path d="M42.6543 12.7917C42.9101 13.2442 43.151 13.7134 43.371 14.1875L44.8818 13.4842C44.6435 12.9717 44.3826 12.4634 44.106 11.9734L42.6543 12.7917Z" fill="#23374E"/>
<path d="M31.0745 1.73419L30.627 3.33919C31.1278 3.47919 31.6286 3.64086 32.1186 3.82086L32.6928 2.25669C32.1628 2.06086 31.6186 1.88586 31.0745 1.73419Z" fill="#23374E"/>
<path d="M38.7715 7.89172C39.1573 8.24838 39.5315 8.62088 39.8823 8.99922L41.1048 7.86672C40.7248 7.45672 40.3198 7.05255 39.9015 6.66672L38.7715 7.89172Z" fill="#23374E"/>
<path d="M46.7306 20C46.6631 19.4384 46.5731 18.8734 46.4623 18.32L44.8281 18.6492C44.9306 19.1584 45.014 19.6792 45.0756 20.1967L46.7306 20Z" fill="#23374E"/>
<path d="M43.9746 15.6334C44.1571 16.1242 44.3213 16.6259 44.4629 17.125L46.0663 16.6692C45.9121 16.1284 45.7346 15.5842 45.5371 15.0542L43.9746 15.6334Z" fill="#23374E"/>
<path d="M16.1403 2.92087C15.6295 3.1567 15.1195 3.41753 14.627 3.6942L15.4436 5.14753C15.8986 4.8917 16.3678 4.65087 16.8403 4.43337L16.1403 2.92087Z" fill="#23374E"/>
<path d="M27.7424 1.07837L27.5508 2.73337C28.0633 2.79254 28.5849 2.8742 29.1016 2.97504L29.4208 1.3392C28.8624 1.23004 28.2974 1.14254 27.7424 1.07837Z" fill="#23374E"/>
<path d="M14.1064 5.96753L13.1772 4.5842C12.7055 4.9017 12.243 5.23753 11.8047 5.58336L12.8364 6.8917C13.2414 6.57253 13.6697 6.2617 14.1064 5.96753Z" fill="#23374E"/>
<path d="M19.324 1.74503C18.7773 1.90003 18.2332 2.07586 17.709 2.27086L18.2865 3.83336C18.7707 3.65503 19.2732 3.49169 19.7782 3.34836L19.324 1.74503Z" fill="#23374E"/>
<path d="M26.0516 0.949204C25.4874 0.926704 24.9157 0.92837 24.3516 0.950037L24.4149 2.61504C24.9349 2.5967 25.4649 2.59504 25.9849 2.6142L26.0516 0.949204Z" fill="#23374E"/>
<path d="M22.6588 1.08337C22.1021 1.14921 21.5371 1.23837 20.9805 1.34754L21.303 2.98337C21.818 2.88171 22.3396 2.79837 22.8538 2.73837L22.6588 1.08337Z" fill="#23374E"/>
<path d="M21.8854 14.2659C21.8854 12.4275 20.3904 10.9325 18.5521 10.9325C16.7137 10.9325 15.2188 12.4275 15.2188 14.2659C15.2188 16.1042 16.7137 17.5992 18.5521 17.5992C20.3904 17.5992 21.8854 16.1042 21.8854 14.2659ZM16.8854 14.2659C16.8854 13.3467 17.6329 12.5992 18.5521 12.5992C19.4713 12.5992 20.2188 13.3467 20.2188 14.2659C20.2188 15.185 19.4713 15.9325 18.5521 15.9325C17.6329 15.9325 16.8854 15.185 16.8854 14.2659Z" fill="#23374E"/>
</g>
<defs>
<clipPath id="clip0_214_1104">
<rect width="50" height="50" fill="white" transform="translate(0.21875 0.932739)"/>
</clipPath>
</defs>
</svg>
