<svg width="76" height="76" viewBox="0 0 76 76" fill="none" xmlns="http://www.w3.org/2000/svg">
<path d="M62.9102 27.6021C61.6914 26.8638 60.3672 26.2427 58.9844 25.7622L55.7148 24.6255L50.125 22.6767C47.7742 21.8563 46.1992 19.6392 46.1992 17.1489V15.4263L46.1875 15.4146C43.7031 16.9849 40.9492 18.1919 37.9961 18.9653C35.043 18.1919 32.2891 16.9849 29.8047 15.4146L29.793 15.4263V17.1396C29.793 19.6356 28.2133 21.8599 25.8555 22.6802L17.0078 25.7622C8.52344 28.7036 2.83984 36.7075 2.83984 45.6841V61.1528C2.83984 63.1802 3.35547 65.0903 4.26953 66.7544C6.27461 70.5196 10.1922 72.8716 14.4578 72.8716H14.5586H16.9023H19.2461H59.0898H73.1523V45.6841C73.1523 38.1724 69.1797 31.3521 62.9102 27.6021Z" fill="#F0D0B4"/>
<path d="M18.4727 2.55908H57.5195C55.082 7.83252 51.1562 12.3325 46.1875 15.4146C43.7031 16.9849 40.9492 18.1919 37.9961 18.9653C35.043 18.1919 32.2891 16.9849 29.8047 15.4146C24.8359 12.3325 20.9102 7.83252 18.4727 2.55908Z" fill="#F0D0B4"/>
<path d="M65.2387 27.7474L68.0992 26.3177L65.6477 23.8661L73.7734 18.7884L72.5312 16.8009L61.907 23.4419L64.143 25.6778L62.9477 26.2755C61.8168 25.6403 60.6285 25.0896 59.3734 24.6536L57.5266 24.0114L62.452 16.6216H58.4371L61.3598 8.82978L59.1648 8.00713L55.0551 18.9653H58.0715L55.2402 23.2134L50.5187 21.5716C48.6367 20.9165 47.3711 19.1364 47.3711 17.1431V16.0626C52.1945 12.9103 56.0957 8.43838 58.5789 3.04893L59.3441 1.38721H16.648L17.4133 3.04893C19.8965 8.43955 23.7977 12.9103 28.6211 16.0626V17.1431C28.6211 19.1364 27.3555 20.9153 25.4734 21.5704L16.6188 24.6501C7.67617 27.7614 1.66797 36.2118 1.66797 45.6806V61.1528C1.66797 68.2603 7.45117 74.0435 14.5586 74.0435H16.9023H19.7066H74.3242V45.6806C74.3242 38.4771 70.8402 31.87 65.2387 27.7474ZM20.3723 3.73096H55.6187C51.898 10.6204 45.5758 15.6712 37.9961 17.7513C30.4164 15.6712 24.0941 10.6204 20.3723 3.73096ZM71.9805 71.6997H60.2617V50.8907C60.2617 47.9974 61.3879 45.2774 63.434 43.2313L61.777 41.5743C59.2879 44.0634 57.918 47.3716 57.918 50.8907V71.6997H22.2297L36.1914 58.7353L40.6539 57.9911C42.3496 57.7087 43.8895 56.9165 45.1047 55.7001L54.5031 46.3017C55.1934 45.6126 55.5742 44.6938 55.5742 43.7165C55.5742 42.2235 54.673 40.9415 53.3887 40.3731C54.0391 39.6911 54.4023 38.804 54.4023 37.8571C54.4023 36.3642 53.5012 35.0821 52.2168 34.5138C52.8672 33.8317 53.2305 32.9446 53.2305 31.9978C53.2305 29.981 51.5898 28.3403 49.573 28.3403C48.5957 28.3403 47.677 28.7212 46.9867 29.4114L45.8805 30.5177C45.3098 29.238 44.0313 28.3403 42.5418 28.3403C41.5645 28.3403 40.6457 28.7212 39.9555 29.4114L35.473 33.8938C35.0523 31.8513 33.8617 30.0302 32.0898 28.8442C31.5977 28.5149 31.0234 28.3403 30.4305 28.3403C28.7875 28.3403 27.4492 29.6786 27.4492 31.3216V32.5298C27.4492 34.0485 26.8574 35.4782 25.784 36.5517L23.9934 38.3423C22.4441 39.8915 21.591 41.9517 21.591 44.1431V47.7771L18.0754 51.2927V50.8907C18.0754 47.3716 16.7055 44.0634 14.2164 41.5743L12.5594 43.2313C14.6043 45.2774 15.7305 47.9974 15.7305 50.8907V53.6364L7.8707 61.4962L9.52773 63.1532L23.9336 48.7474V44.1431C23.9336 42.5786 24.543 41.1067 25.6492 39.9993L27.4398 38.2087C28.9574 36.6923 29.793 34.6755 29.793 32.5298V31.3216C29.793 30.8435 30.3859 30.5247 30.7867 30.7919C32.3652 31.8501 33.3086 33.6161 33.3086 35.5181V36.0583L28.9645 40.4024L28.9047 40.4622L30.5617 42.1192L30.6215 42.0595L35.6523 37.0286L41.6125 31.0685C41.8609 30.8212 42.1902 30.6841 42.5418 30.6841C43.266 30.6841 43.8555 31.2735 43.8555 31.9978C43.8555 32.3493 43.7184 32.6786 43.4711 32.927L34.8238 41.5743L36.4809 43.2313L45.1281 34.5841L48.6437 31.0685C48.8922 30.8212 49.2215 30.6841 49.573 30.6841C50.2973 30.6841 50.8867 31.2735 50.8867 31.9978C50.8867 32.3493 50.7496 32.6786 50.5023 32.927L48.1586 35.2708L38.3395 45.0899L39.9965 46.747L49.8156 36.9278C50.0641 36.6806 50.3934 36.5435 50.7449 36.5435C51.4691 36.5435 52.0586 37.1329 52.0586 37.8571C52.0586 38.2087 51.9215 38.538 51.6742 38.7864L49.3305 41.1302L41.8551 48.6056L43.5121 50.2626L50.9875 42.7872C51.2359 42.5399 51.5652 42.4028 51.9168 42.4028C52.641 42.4028 53.2305 42.9923 53.2305 43.7165C53.2305 44.0681 53.0934 44.3974 52.8461 44.6458L43.4477 54.0442C42.5793 54.9126 41.4801 55.4786 40.2684 55.6802L35.1133 56.5392L18.7855 71.6997H16.9023H14.5586C8.74375 71.6997 4.01172 66.9677 4.01172 61.1528V45.6806C4.01172 37.2091 9.38711 29.647 17.3887 26.8638L26.2434 23.7841C28.9727 22.8349 30.8195 20.3048 30.9414 17.4372C33.0602 18.5716 35.3207 19.4728 37.6973 20.0985L37.9961 20.1771L38.2938 20.0985C40.6703 19.4728 42.932 18.5716 45.0496 17.4372C45.1715 20.3048 47.0184 22.8349 49.7477 23.7841L53.8961 25.2267L52.2543 27.6899L54.2043 28.9896L56.1824 26.0224L58.6023 26.8638C59.2 27.0712 59.7777 27.3138 60.3449 27.5739L53.8773 30.8071L54.9262 32.9036L62.8539 28.9392C68.4496 32.552 71.9805 38.8169 71.9805 45.6806V71.6997Z" fill="#111111"/>
<path d="M40.3398 13.106H42.6836C42.6836 11.1349 40.6246 9.59033 37.9961 9.59033C35.3676 9.59033 33.3086 11.1349 33.3086 13.106H35.6523C35.6523 12.6278 36.5652 11.9341 37.9961 11.9341C39.427 11.9341 40.3398 12.6278 40.3398 13.106Z" fill="#111111"/>
</svg>
