<svg width="76" height="76" viewBox="0 0 76 76" fill="none" xmlns="http://www.w3.org/2000/svg">
<g clip-path="url(#clip0_242_2667)">
<path d="M56.6983 17.9905V70.6544C56.6983 72.7193 55.0246 74.393 52.9597 74.393H9.58232C7.51748 74.393 5.84375 72.7193 5.84375 70.6544V17.9905C5.84375 15.9257 7.51748 14.252 9.58232 14.252H52.9597C55.0244 14.2521 56.6983 15.9258 56.6983 17.9905Z" fill="#3D9AE2"/>
<path d="M56.6985 17.9905V69.5224H13.7151C11.6503 69.5224 9.97656 67.8487 9.97656 65.7838V14.2521H52.9599C55.0246 14.2521 56.6985 15.9258 56.6985 17.9905Z" fill="#5AAAE7"/>
<path d="M67.499 59.3239L25.9902 71.9135C24.014 72.5128 21.927 71.397 21.3277 69.4221L6.0415 19.0237C5.44077 17.0489 6.55654 14.9605 8.53291 14.3612L9.34018 14.1162L50.0419 1.77018C52.0181 1.17091 54.1051 2.28668 54.7043 4.26305L69.6452 53.5175L69.992 54.6614C70.5913 56.6362 69.4755 58.7246 67.499 59.3239Z" fill="#96C8EF"/>
<path d="M69.6444 53.5175L28.9414 65.8622C26.9651 66.4615 24.8782 65.3457 24.2789 63.3708L9.33984 14.1163L50.0414 1.77018C52.0176 1.17091 54.1046 2.28668 54.7039 4.26305L69.6444 53.5175Z" fill="#C2DFF6"/>
<path d="M56.806 70.0199C56.1994 69.9446 55.6475 70.3755 55.5722 70.9821C55.4099 72.2957 54.2881 73.286 52.9612 73.286H9.58384C8.13306 73.286 6.95225 72.1068 6.95225 70.6544V25.8411L12.9726 45.6893C13.1172 46.1674 13.5571 46.4759 14.0308 46.4759C14.137 46.4759 14.2463 46.4596 14.3525 46.4272C14.9384 46.2501 15.269 45.6317 15.0905 45.0472L9.56758 26.8373C10.3204 28.7103 12.1564 30.0371 14.2979 30.0371C17.108 30.0371 19.3957 27.7495 19.3957 24.9393C19.3957 22.9728 19.3957 13.7447 19.3957 12.2242C26.7716 9.9856 35.6296 7.3001 43.837 4.8106C44.4215 4.63203 44.7521 4.01504 44.575 3.4291C44.3964 2.84463 43.778 2.51402 43.1935 2.69112L22.715 8.90323C21.5327 6.58599 19.1226 4.99649 16.3464 4.99649C12.4057 4.99649 9.20005 8.20215 9.20005 12.1429V13.0033L8.21113 13.3029C6.15376 13.9259 4.77227 15.7886 4.77227 17.9375L4.73828 19.2481V70.6546C4.73828 73.3275 6.91226 75.5 9.58369 75.5H52.9611C55.4037 75.5 57.47 73.6742 57.7696 71.2537C57.8453 70.6471 57.4127 70.0937 56.806 70.0199ZM11.4142 12.143C11.4142 9.42295 13.6265 7.21045 16.3467 7.21045C18.1208 7.21045 19.6794 8.15205 20.5472 9.56167L18.6373 10.1403C16.882 8.12129 13.5474 9.12456 13.2162 11.7844C13.1772 12.0897 13.1909 22.7453 13.1912 23.1535C13.1912 23.7645 13.687 24.2605 14.2981 24.2605C14.9091 24.2605 15.4051 23.7647 15.4051 23.1535C15.4051 22.3383 15.4051 12.6551 15.4051 12.1711C15.4051 11.6812 15.8036 11.2826 16.2937 11.2826C16.7837 11.2826 17.1823 11.681 17.1823 12.1711C17.1823 13.6883 17.1823 23.2514 17.1823 24.9393C17.1823 26.5288 15.8879 27.8233 14.2983 27.8233C12.7086 27.8233 11.4143 26.529 11.4143 24.9393C11.4142 22.2071 11.4142 14.9081 11.4142 12.143ZM7.75674 16.0852C7.7582 16.0823 7.75967 16.0808 7.76113 16.0823C7.86206 16.0131 8.34824 15.5079 9.2002 15.3871C9.23608 25.3347 9.11919 25.072 9.3064 25.9769L7.10005 18.7035C6.80811 17.7305 7.09844 16.7476 7.75674 16.0852Z" fill="black"/>
<path d="M55.7649 3.94122C54.9652 1.30568 52.2192 -0.0531131 49.7224 0.711975L47.4318 1.40572C46.8474 1.58429 46.5167 2.20128 46.6938 2.78722C46.8709 3.37169 47.4894 3.70231 48.0739 3.52521C50.2446 2.89781 50.483 2.71647 51.1306 2.71647C52.2774 2.71647 53.3135 3.4839 53.647 4.58502L56.8276 15.073L57.8076 18.3024L68.9331 54.9821C69.3679 56.4036 68.5256 57.8563 67.1797 58.2645C22.8387 71.7141 25.4986 70.9693 24.9047 70.9693C23.7564 70.9693 22.7218 70.2018 22.3883 69.1007L16.3769 49.2834C16.1998 48.6989 15.5813 48.3683 14.9968 48.5454C14.4109 48.724 14.0817 49.3424 14.2588 49.9269L20.2688 69.7442C20.8931 71.8016 22.7557 73.1831 24.9047 73.1831C25.3799 73.1831 25.8538 73.1122 26.3127 72.9734L55.5936 64.0914V66.6919C55.5936 67.3029 56.088 67.7989 56.7006 67.7989C57.3116 67.7989 57.8076 67.303 57.8076 66.6919V63.4197L67.8217 60.3822C69.8791 59.7579 71.2621 57.8954 71.2621 55.7478C71.2621 54.4007 71.808 57.0808 55.7649 3.94122Z" fill="black"/>
<path d="M28.2765 23.9568C29.073 26.5824 31.1656 26.7185 32.8471 26.8278C34.5244 26.9368 35.3475 27.0452 35.7313 28.3103C36.0613 29.3984 35.6491 30.0769 34.4341 30.4454C32.4765 31.0391 32.1825 29.5947 31.115 29.9186C30.4121 30.1317 30.0897 31.0314 30.2813 31.6632C30.5957 32.6997 32.1973 33.3551 33.9516 33.2095L34.0855 33.6507C34.3076 34.383 35.0839 34.798 35.8164 34.5758C36.5486 34.3537 36.9636 33.5773 36.7414 32.8449L36.5987 32.3744C38.3251 31.338 38.9441 29.5531 38.2974 27.4209C37.3616 24.3358 34.8866 24.1884 33.408 24.1007C32.0728 24.0028 31.1448 24.0642 30.8426 23.0675C30.5525 22.1108 31.2263 21.6162 32.185 21.3252C33.5873 20.8998 34.075 21.4541 34.7488 21.2497C35.5413 21.0093 35.7346 20.0685 35.5651 19.5103C35.2046 18.3217 33.3922 18.4442 32.4213 18.6022L32.2864 18.1572C32.0643 17.4249 31.288 17.01 30.5557 17.232C29.8234 17.4541 29.4084 18.2305 29.6306 18.9629L29.8161 19.574C28.2702 20.5908 27.7237 22.1343 28.2765 23.9568Z" fill="black"/>
<path d="M53.9272 32.4926L22.3718 42.0644C21.7869 42.2419 21.4565 42.8601 21.6339 43.445C21.8105 44.0273 22.4265 44.3611 23.0145 44.183L54.5698 34.6112C55.1548 34.4337 55.4852 33.8155 55.3078 33.2306C55.1303 32.6456 54.5118 32.3154 53.9272 32.4926Z" fill="black"/>
<path d="M55.7668 38.5665L55.5911 38.6196L24.2115 48.1379C23.6271 48.3165 23.2965 48.9334 23.4736 49.5194C23.6517 50.1063 24.2731 50.4329 24.8551 50.2574C24.8723 50.2522 56.3466 40.7053 56.4103 40.6859C56.9947 40.5074 57.3254 39.8889 57.1483 39.3044C56.9696 38.72 56.3511 38.3894 55.7668 38.5665Z" fill="black"/>
<path d="M57.612 44.6399L55.593 45.2523L26.0553 54.2126C24.8424 54.5801 25.1108 56.3793 26.377 56.3793C26.4832 56.3793 26.591 56.363 26.6987 56.3306C33.7231 54.2 50.7965 49.0212 58.2539 46.7592C58.8384 46.5821 59.169 45.9636 58.9919 45.3777C58.8176 44.8048 58.2122 44.4625 57.612 44.6399Z" fill="black"/>
<path d="M28.2164 62.4528C28.4657 62.4528 26.611 62.9949 60.0934 52.8327C60.6794 52.6556 61.01 52.0372 60.8314 51.4527C60.6543 50.8682 60.0358 50.5376 59.4514 50.7147L57.8043 51.2151C29.9046 59.6771 27.9924 60.2568 27.8991 60.2853C27.8988 60.2853 27.8986 60.2854 27.8983 60.2854C27.8985 60.2854 27.8986 60.2853 27.8988 60.2853C27.8978 60.2856 27.8969 60.2858 27.8963 60.286C27.8964 60.286 27.8966 60.2858 27.8967 60.2858C27.8964 60.2858 27.8963 60.286 27.8961 60.286C26.6806 60.6535 26.9523 62.4528 28.2164 62.4528Z" fill="black"/>
<path d="M27.9056 60.2844C27.9051 60.2845 27.9038 60.285 27.9023 60.2854H27.9026C27.9044 60.2847 27.9054 60.2844 27.9056 60.2844Z" fill="black"/>
</g>
<defs>
<clipPath id="clip0_242_2667">
<rect width="75" height="75" fill="white" transform="translate(0.5 0.5)"/>
</clipPath>
</defs>
</svg>
