<svg width="27" height="36" viewBox="0 0 27 36" fill="none" xmlns="http://www.w3.org/2000/svg">
<path d="M26.625 31.125V10.3438L16.7812 0.5H4.75C3.58968 0.5 2.47688 0.960936 1.65641 1.78141C0.835936 2.60188 0.375 3.71468 0.375 4.875V31.125C0.375 32.2853 0.835936 33.3981 1.65641 34.2186C2.47688 35.0391 3.58968 35.5 4.75 35.5H22.25C23.4103 35.5 24.5231 35.0391 25.3436 34.2186C26.1641 33.3981 26.625 32.2853 26.625 31.125Z" fill="#FF6B6B"/>
<path d="M16.7812 7.0625C16.7812 7.93274 17.127 8.76734 17.7423 9.38269C18.3577 9.99805 19.1923 10.3438 20.0625 10.3438H24.4375V31.125C24.4375 31.7052 24.207 32.2616 23.7968 32.6718C23.3866 33.082 22.8302 33.3125 22.25 33.3125H4.75C4.16984 33.3125 3.61344 33.082 3.2032 32.6718C2.79297 32.2616 2.5625 31.7052 2.5625 31.125V4.875C2.5625 4.29484 2.79297 3.73844 3.2032 3.3282C3.61344 2.91797 4.16984 2.6875 4.75 2.6875H16.7812V7.0625Z" fill="white"/>
<path d="M6.06879 31.3153C5.64243 31.1448 5.29893 30.8154 5.11067 30.3966C4.68411 29.5478 4.82629 28.6991 5.28567 27.9859C5.71879 27.3144 6.43629 26.7434 7.24785 26.2644C8.27584 25.6813 9.36248 25.2084 10.4897 24.8534C11.3651 23.2797 12.141 21.6527 12.8129 19.9819C12.4112 19.0692 12.0963 18.1207 11.8722 17.1491C11.6841 16.2741 11.6119 15.4078 11.7716 14.6641C11.9357 13.8897 12.371 13.1941 13.1935 12.8637C13.6135 12.6953 14.0685 12.6012 14.5104 12.6953C14.7326 12.7426 14.9416 12.8388 15.1221 12.9769C15.3025 13.115 15.45 13.2916 15.5538 13.4937C15.7463 13.8525 15.8163 14.2725 15.8316 14.6706C15.8469 15.0819 15.8054 15.5369 15.7288 16.0137C15.545 17.1294 15.1382 18.4944 14.5913 19.9381C15.1948 21.2288 15.9122 22.463 16.735 23.6262C17.7087 23.5493 18.688 23.586 19.6532 23.7356C20.4494 23.88 21.2588 24.1622 21.7532 24.7528C22.0157 25.0678 22.1753 25.4528 22.1907 25.8859C22.206 26.3059 22.0878 26.7216 21.8888 27.1175C21.7164 27.4844 21.449 27.7986 21.1144 28.0275C20.7837 28.2432 20.3932 28.3489 19.9988 28.3294C19.2747 28.2987 18.5682 27.9006 17.9579 27.4172C17.2157 26.8036 16.547 26.1062 15.965 25.3391C14.4857 25.5069 13.024 25.8041 11.5966 26.2272C10.9429 27.3865 10.1968 28.4911 9.36535 29.5303C8.7266 30.2959 8.03317 30.9653 7.33754 31.2519C6.93786 31.4327 6.48452 31.4553 6.06879 31.3153ZM9.08535 27.1569C8.72223 27.3231 8.38535 27.4981 8.08129 27.6775C7.36379 28.1019 6.89785 28.5153 6.66598 28.8741C6.46035 29.1912 6.45598 29.4209 6.57848 29.6637C6.60035 29.7119 6.62223 29.7425 6.63535 29.76C6.66145 29.753 6.68704 29.7443 6.71192 29.7337C7.0116 29.6112 7.48848 29.2197 8.10098 28.4825C8.44933 28.056 8.7778 27.6137 9.08535 27.1569ZM12.6729 24.2475C13.4033 24.077 14.1404 23.9362 14.8822 23.8253C14.4839 23.2158 14.1117 22.5896 13.7666 21.9484C13.4235 22.7241 13.0588 23.49 12.6729 24.2453V24.2475ZM18.0235 25.2319C18.3516 25.5884 18.671 25.8881 18.975 26.1287C19.5 26.5444 19.8653 26.6822 20.0644 26.6887C20.1177 26.6957 20.1718 26.6841 20.2175 26.6559C20.3085 26.5841 20.3794 26.4899 20.4232 26.3825C20.5009 26.2492 20.5452 26.0991 20.5522 25.945C20.551 25.8936 20.5307 25.8445 20.4953 25.8072C20.3816 25.6716 20.0578 25.4747 19.3622 25.35C18.9197 25.276 18.4721 25.2372 18.0235 25.2341V25.2319Z" fill="#FF6B6B"/>
<path d="M13.671 17.5625C13.8551 16.9687 14.0012 16.3637 14.1085 15.7513C14.1763 15.34 14.2025 15.001 14.1916 14.7341C14.1922 14.5869 14.1685 14.4405 14.1216 14.301C14.0122 14.3145 13.9053 14.344 13.8044 14.3885C13.6141 14.465 13.4588 14.6203 13.3756 15.0075C13.2881 15.4275 13.31 16.0335 13.4763 16.8057C13.5288 17.0485 13.5944 17.3022 13.6731 17.5625H13.671Z" fill="white"/>
</svg>
