<svg width="76" height="76" viewBox="0 0 76 76" fill="none" xmlns="http://www.w3.org/2000/svg">
<path d="M5.85948 26.1704C0.173245 20.4842 0.173245 11.2649 5.85948 5.57864C11.5457 -0.107593 20.765 -0.107593 26.4512 5.57864L70.1329 49.2603C75.8191 54.9465 75.8191 64.1658 70.1329 69.852C64.4466 75.5383 55.2273 75.5383 49.5411 69.852L5.85948 26.1704Z" fill="#D77F4A"/>
<path d="M70.1327 49.2603L26.4511 5.57864C23.1792 2.30676 18.7376 0.918089 14.4725 1.41145C17.6198 1.77561 20.6712 3.16413 23.0856 5.57849L66.7672 49.2601C72.4535 54.9464 72.4535 64.1656 66.7672 69.8519C64.3529 72.2662 61.3015 73.6549 58.1541 74.0189C62.4193 74.5123 66.8608 73.1237 70.1327 69.8519C75.8189 64.1658 75.8189 54.9465 70.1327 49.2603Z" fill="#C86D36"/>
<path d="M49.5411 5.57864C55.2273 -0.107593 64.4466 -0.107593 70.1329 5.57864C75.8191 11.2649 75.8191 20.4842 70.1329 26.1704L26.4512 69.852C20.765 75.5383 11.5457 75.5383 5.85948 69.852C0.173245 64.1658 0.173245 54.9465 5.85948 49.2603L49.5411 5.57864Z" fill="#FDDEB0"/>
<path d="M53.4985 35.9406L36.2214 53.2178C35.3062 54.1331 33.8222 54.1331 32.9069 53.2178L22.4936 42.8045C21.5784 41.8893 21.5784 40.4053 22.4936 39.49L39.7707 22.2128C40.686 21.2976 42.17 21.2976 43.0853 22.2128L53.4985 32.6261C54.4139 33.5413 54.4139 35.0253 53.4985 35.9406Z" fill="#F9F6F6"/>
<path d="M70.1327 5.57859C66.8604 2.30628 62.4181 0.917607 58.1523 1.4117C61.2991 1.77615 64.3497 3.16468 66.7636 5.57859C72.4498 11.2648 72.4498 20.4841 66.7636 26.1703L23.0819 69.852C20.668 72.2659 17.6173 73.6544 14.4707 74.0189C18.7365 74.5128 23.1788 73.1243 26.4511 69.852L70.1327 26.1703C75.8189 20.4841 75.8189 11.2648 70.1327 5.57859Z" fill="#FCCD7F"/>
<path d="M53.4985 32.6261L43.0853 22.2128C42.17 21.2976 40.686 21.2976 39.7708 22.2128L39.7441 22.2395L50.1306 32.6261C51.0458 33.5413 51.0458 35.0253 50.1306 35.9406L32.8801 53.191L32.9068 53.2177C33.822 54.1329 35.3061 54.1329 36.2213 53.2177L53.4985 35.9406C54.4139 35.0253 54.4139 33.5413 53.4985 32.6261Z" fill="#DDDAEC"/>
<path d="M20.3261 51.7912L20.7552 51.3623C21.1844 50.9334 21.1844 50.2377 20.7555 49.8087C20.3266 49.3796 19.6309 49.3795 19.2019 49.8085L18.7728 50.2374C18.3436 50.6663 18.3436 51.362 18.7725 51.7912C18.987 52.0058 19.2682 52.113 19.5495 52.113C19.8304 52.113 20.1115 52.0057 20.3261 51.7912Z" fill="#111111"/>
<path d="M24.3495 54.9564L23.9204 55.3855C23.4914 55.8147 23.4914 56.5102 23.9204 56.9393C24.1349 57.1537 24.4161 57.2609 24.6972 57.2609C24.9783 57.2609 25.2596 57.1537 25.474 56.9393L25.9031 56.5102C26.3321 56.081 26.3321 55.3855 25.9031 54.9564C25.4742 54.5275 24.7785 54.5275 24.3495 54.9564Z" fill="#111111"/>
<path d="M16.0362 56.0809L16.4652 55.6518C16.8943 55.2226 16.8943 54.5271 16.4652 54.098C16.0362 53.6691 15.3405 53.6691 14.9116 54.098L14.4826 54.5271C14.0535 54.9563 14.0535 55.6518 14.4826 56.0809C14.697 56.2953 14.9783 56.4025 15.2594 56.4025C15.5406 56.4027 15.8217 56.2953 16.0362 56.0809Z" fill="#111111"/>
<path d="M20.0595 59.246L19.6305 59.675C19.2014 60.1042 19.2014 60.7998 19.6305 61.2288C19.8449 61.4433 20.1262 61.5505 20.4073 61.5505C20.6885 61.5505 20.9696 61.4433 21.1841 61.2288L21.6131 60.7998C22.0422 60.3706 22.0422 59.675 21.6131 59.246C21.1841 58.8171 20.4884 58.8171 20.0595 59.246Z" fill="#111111"/>
<path d="M10.6215 58.388L10.1925 58.817C9.76343 59.2462 9.76343 59.9417 10.1925 60.3708C10.4069 60.5852 10.6882 60.6925 10.9693 60.6925C11.2504 60.6925 11.5316 60.5852 11.7461 60.3708L12.1752 59.9417C12.6042 59.5125 12.6042 58.817 12.1752 58.388C11.7462 57.9592 11.0506 57.9592 10.6215 58.388Z" fill="#111111"/>
<path d="M15.7694 63.5363L15.3405 63.9654C14.9115 64.3944 14.9116 65.0901 15.3407 65.5191C15.5551 65.7337 15.8362 65.8408 16.1175 65.8408C16.3987 65.8408 16.6798 65.7334 16.8944 65.519L17.3233 65.0899C17.7524 64.6609 17.7522 63.9652 17.3232 63.5362C16.8941 63.107 16.1985 63.1071 15.7694 63.5363Z" fill="#111111"/>
<path d="M59.4458 12.2162C59.7269 12.2162 60.0082 12.1089 60.2228 11.8943L60.6517 11.4653C61.0807 11.0362 61.0806 10.3406 60.6515 9.91167C60.2225 9.48247 59.5268 9.48262 59.0979 9.91182L58.669 10.3409C58.2399 10.7699 58.2401 11.4656 58.6691 11.8945C58.8836 12.1091 59.1647 12.2162 59.4458 12.2162Z" fill="#111111"/>
<path d="M64.5937 17.3645C64.8748 17.3645 65.1561 17.2572 65.3705 17.0428L65.7996 16.6137C66.2286 16.1845 66.2286 15.489 65.7996 15.06C65.3705 14.6311 64.6749 14.6311 64.2458 15.06L63.8168 15.489C63.3877 15.9182 63.3877 16.6137 63.8168 17.0428C64.0314 17.2571 64.3126 17.3645 64.5937 17.3645Z" fill="#111111"/>
<path d="M55.1559 16.5061C55.437 16.5061 55.7182 16.3988 55.9327 16.1844L56.3617 15.7553C56.7908 15.3261 56.7908 14.6306 56.3617 14.2016C55.9327 13.7727 55.237 13.7727 54.808 14.2016L54.3789 14.6306C53.9499 15.0598 53.9499 15.7553 54.3789 16.1844C54.5935 16.3988 54.8748 16.5061 55.1559 16.5061Z" fill="#111111"/>
<path d="M59.956 19.3499L59.527 19.7789C59.0979 20.2081 59.0979 20.9037 59.527 21.3327C59.7414 21.5472 60.0227 21.6544 60.3038 21.6544C60.5849 21.6544 60.8661 21.5472 61.0806 21.3327L61.5096 20.9037C61.9387 20.4745 61.9387 19.7789 61.5096 19.3499C61.0806 18.9211 60.3849 18.9211 59.956 19.3499Z" fill="#111111"/>
<path d="M50.8659 20.7961C51.147 20.7961 51.4283 20.6889 51.6427 20.4744L52.0718 20.0454C52.5008 19.6162 52.5008 18.9207 52.0718 18.4916C51.6427 18.0627 50.9471 18.0627 50.5182 18.4916L50.0891 18.9207C49.6601 19.3499 49.6601 20.0454 50.0891 20.4744C50.3036 20.6889 50.5847 20.7961 50.8659 20.7961Z" fill="#111111"/>
<path d="M57.2198 23.6397C56.7909 23.2105 56.0953 23.2107 55.6661 23.6396L55.237 24.0685C54.8078 24.4974 54.8078 25.1931 55.2367 25.6221C55.4512 25.8367 55.7324 25.9439 56.0137 25.9439C56.2948 25.9439 56.5759 25.8367 56.7903 25.6223L57.2194 25.1933C57.6487 24.7644 57.6487 24.0688 57.2198 23.6397Z" fill="#111111"/>
<path d="M43.8622 21.4361C43.212 20.7859 42.3476 20.4277 41.4279 20.4277C40.5084 20.4277 39.6439 20.7857 38.9938 21.436L21.7168 38.7131C21.0666 39.3633 20.7086 40.2277 20.7086 41.1472C20.7086 42.0667 21.0667 42.9313 21.7168 43.5814L32.13 53.9945C32.7802 54.6447 33.6446 55.0029 34.5643 55.0029C35.4837 55.0029 36.3483 54.6449 36.9984 53.9946L54.2755 36.7175C54.9256 36.0674 55.2837 35.2029 55.2837 34.2834C55.2837 33.3639 54.9256 32.4994 54.2755 31.8493L43.8622 21.4361ZM52.7217 35.1638L35.4445 52.441C35.2094 52.6761 34.8966 52.8056 34.5641 52.8056C34.2316 52.8056 33.9188 52.6761 33.6836 52.4409L23.2705 42.0276C23.0353 41.7925 22.9057 41.4799 22.9057 41.1472C22.9057 40.8146 23.0352 40.5021 23.2705 40.2668L40.5477 22.9896C40.7828 22.7545 41.0955 22.625 41.4281 22.625C41.7607 22.625 42.0733 22.7545 42.3086 22.9897L52.7217 33.403C52.9568 33.6381 53.0865 33.9507 53.0865 34.2834C53.0865 34.6159 52.9568 34.9285 52.7217 35.1638Z" fill="#111111"/>
<path d="M60.1416 37.7153L70.9097 26.9473C73.8672 23.9896 75.4961 20.0574 75.4961 15.8747C75.4961 11.6918 73.8672 7.75957 70.9095 4.80176C64.8041 -1.30371 54.8696 -1.30371 48.7642 4.80176L37.9961 15.57L27.228 4.80191C21.1226 -1.30342 11.1881 -1.30342 5.08267 4.80191C2.125 7.75942 0.496094 11.6918 0.496094 15.8745C0.496094 20.0574 2.125 23.9896 5.08252 26.9474L15.8506 37.7153L5.08252 48.4834C2.125 51.4412 0.496094 55.3734 0.496094 59.5562C0.496094 63.739 2.125 67.6712 5.08252 70.6291C8.13525 73.6818 12.1453 75.208 16.1551 75.208C20.1651 75.208 24.1751 73.6818 27.2279 70.6291L37.9961 59.8608L48.7642 70.6291C51.8169 73.6818 55.8269 75.208 59.8369 75.208C63.8468 75.208 67.8568 73.6818 70.9095 70.6291C73.8672 67.6712 75.4961 63.739 75.4961 59.5563C75.4961 55.3734 73.8672 51.4412 70.9095 48.4834L60.1416 37.7153ZM6.63628 25.3935C1.38745 20.1448 1.38745 11.6042 6.63628 6.35552C11.8851 1.10669 20.4254 1.10669 25.6743 6.35552L36.4423 17.1236L17.4043 36.1616L6.63628 25.3935ZM25.6743 69.0752C23.0496 71.6999 19.6029 73.0121 16.1553 73.0118C12.7084 73.0113 9.2604 71.6993 6.63628 69.0752C4.09375 66.5326 2.69336 63.1521 2.69336 59.5562C2.69336 55.9604 4.09375 52.5798 6.63628 50.0373L50.3179 6.35566C55.5669 1.10698 64.1072 1.10684 69.3559 6.35566C71.8984 8.89819 73.2988 12.2788 73.2988 15.8747C73.2988 19.4704 71.8984 22.851 69.3559 25.3935C69.3559 25.3935 57.809 36.9404 57.8081 36.9413L25.6743 69.0752ZM69.3559 69.0752C66.7312 71.6999 63.2846 73.0121 59.8369 73.0118C56.39 73.0113 52.942 71.6993 50.3179 69.0752L39.5499 58.3071L58.5878 39.2691L69.3559 50.0372C74.6047 55.286 74.6047 63.8266 69.3559 69.0752Z" fill="#111111"/>
<path d="M25.9031 18.9207L25.474 18.4916C25.045 18.0627 24.3493 18.0627 23.9204 18.4916C23.4914 18.9208 23.4914 19.6163 23.9204 20.0454L24.3495 20.4744C24.5639 20.6889 24.8452 20.7961 25.1263 20.7961C25.4074 20.7961 25.6886 20.6889 25.9031 20.4744C26.3321 20.0452 26.3321 19.3497 25.9031 18.9207Z" fill="#111111"/>
<path d="M20.3261 23.6397C19.8971 23.2105 19.2014 23.2106 18.7725 23.6398C18.3436 24.069 18.3436 24.7647 18.7728 25.1935L19.2019 25.6224C19.4163 25.837 19.6974 25.944 19.9785 25.944C20.2596 25.944 20.541 25.8368 20.7555 25.6222C21.1844 25.193 21.1844 24.4974 20.7552 24.0686L20.3261 23.6397Z" fill="#111111"/>
<path d="M21.1841 14.2016C20.755 13.7727 20.0594 13.7727 19.6303 14.2016C19.2013 14.6308 19.2013 15.3263 19.6303 15.7553L20.0594 16.1844C20.2738 16.3988 20.5551 16.5061 20.8362 16.5061C21.1173 16.5061 21.3985 16.3988 21.613 16.1844C22.042 15.7552 22.042 15.0597 21.613 14.6306L21.1841 14.2016Z" fill="#111111"/>
<path d="M16.0362 19.3495C15.6071 18.9206 14.9115 18.9206 14.4826 19.3495C14.0535 19.7787 14.0535 20.4742 14.4826 20.9033L14.9116 21.3323C15.1261 21.5468 15.4073 21.654 15.6884 21.654C15.9695 21.654 16.2508 21.5468 16.4652 21.3323C16.8943 20.9031 16.8943 20.2076 16.4652 19.7786L16.0362 19.3495Z" fill="#111111"/>
<path d="M16.8943 9.91219C16.4654 9.483 15.7697 9.48314 15.3407 9.91205C14.9116 10.3411 14.9115 11.0368 15.3405 11.4657L15.7694 11.8947C15.9839 12.1093 16.2651 12.2165 16.5464 12.2165C16.8276 12.2165 17.1086 12.1093 17.3232 11.8949C17.7522 11.4658 17.7524 10.7702 17.3233 10.3412L16.8943 9.91219Z" fill="#111111"/>
<path d="M11.7462 15.06C11.3172 14.6311 10.6215 14.6311 10.1926 15.06C9.76357 15.4892 9.76357 16.1847 10.1926 16.6137L10.6217 17.0428C10.8361 17.2572 11.1174 17.3645 11.3985 17.3645C11.6796 17.3645 11.9608 17.2572 12.1753 17.0428C12.6043 16.6136 12.6043 15.9181 12.1753 15.489L11.7462 15.06Z" fill="#111111"/>
<path d="M65.3705 58.3881C64.9415 57.9592 64.2458 57.9592 63.8168 58.3881C63.3877 58.8173 63.3877 59.5128 63.8168 59.9418L64.2458 60.3709C64.4603 60.5853 64.7415 60.6926 65.0226 60.6926C65.3037 60.6926 65.585 60.5853 65.7994 60.3709C66.2285 59.9417 66.2285 59.2462 65.7994 58.8171L65.3705 58.3881Z" fill="#111111"/>
<path d="M60.2228 63.5362C59.7937 63.107 59.0981 63.1072 58.669 63.5361C58.2399 63.9651 58.2398 64.6608 58.6689 65.0898L59.0978 65.5189C59.3122 65.7335 59.5935 65.8407 59.8747 65.8407C60.1558 65.8407 60.4369 65.7333 60.6515 65.519C61.0806 65.09 61.0807 64.3943 60.6517 63.9653L60.2228 63.5362Z" fill="#111111"/>
<path d="M61.0806 54.098C60.6515 53.6691 59.9559 53.6691 59.527 54.098C59.0979 54.5272 59.0979 55.2228 59.527 55.6518L59.956 56.0809C60.1705 56.2953 60.4517 56.4025 60.7328 56.4025C61.0139 56.4025 61.2952 56.2953 61.5096 56.0809C61.9387 55.6517 61.9387 54.9562 61.5096 54.5271L61.0806 54.098Z" fill="#111111"/>
<path d="M55.9327 59.246C55.5036 58.8171 54.808 58.8171 54.3789 59.246C53.9499 59.6752 53.9499 60.3707 54.3789 60.7998L54.808 61.2288C55.0224 61.4433 55.3037 61.5505 55.5848 61.5505C55.8659 61.5505 56.1471 61.4433 56.3616 61.2288C56.7906 60.7996 56.7906 60.1041 56.3616 59.675L55.9327 59.246Z" fill="#111111"/>
<path d="M56.7905 49.8082C56.3614 49.379 55.6658 49.3791 55.2369 49.8083C54.808 50.2375 54.808 50.9332 55.2372 51.3619L55.6662 51.7908C55.8807 52.0054 56.1618 52.1125 56.4429 52.1125C56.724 52.1125 57.0054 52.0053 57.2198 51.7907C57.6487 51.3615 57.6487 50.6658 57.2195 50.2369L56.7905 49.8082Z" fill="#111111"/>
<path d="M51.6427 54.9564C51.2137 54.5275 50.518 54.5275 50.0891 54.9564C49.6601 55.3856 49.6601 56.0812 50.0891 56.5102L50.5182 56.9393C50.7326 57.1537 51.0139 57.2609 51.295 57.2609C51.5761 57.2609 51.8573 57.1537 52.0718 56.9393C52.5008 56.5101 52.5008 55.8146 52.0718 55.3855L51.6427 54.9564Z" fill="#111111"/>
</svg>
