<svg width="76" height="76" viewBox="0 0 76 76" fill="none" xmlns="http://www.w3.org/2000/svg">
<g clip-path="url(#clip0_242_2619)">
<path d="M16.4915 53.5328C16.012 53.3729 15.6886 52.9243 15.6886 52.4187V47.3939H8.64312V52.4187C8.64312 52.9241 8.31968 53.3729 7.84023 53.5328L3.20356 55.0783C2.24453 55.3979 1.59766 56.2955 1.59766 57.3062V63.8331L16.4915 53.5328Z" fill="#E29A6C"/>
<path d="M5.12017 66.1817L5.11914 58.1524L8.95483 56.8744C10.3431 56.4112 11.4017 55.3473 11.8825 54.0288C12.0439 53.5859 12.4453 53.2796 12.9155 53.2476C13.8703 53.1827 14.8123 52.9643 15.7226 52.6339C15.7089 52.5626 15.6883 52.4933 15.6883 52.4187V47.3939H8.64312V52.4187C8.64312 52.9241 8.31968 53.3729 7.84009 53.5328L3.20342 55.0783C2.24438 55.3979 1.59766 56.2953 1.59766 57.3062V63.8331C1.59766 65.1301 2.64912 66.1815 3.94609 66.1815H5.12017V66.1817Z" fill="#D48C64"/>
<path d="M5.12017 66.1817H22.7339V57.3062C22.7339 56.2953 22.087 55.3979 21.1281 55.0782L16.5016 53.536L12.8704 56.2593C12.4529 56.5723 11.8788 56.5723 11.4613 56.2593L7.83013 53.5361L3.20356 55.0783C2.24453 55.3979 1.59766 56.2953 1.59766 57.3062L5.12017 66.1817Z" fill="#B3E1F8"/>
<path d="M8.95498 56.8744C9.65942 56.6394 10.2714 56.2429 10.7737 55.7438L7.83013 53.5361L3.20356 55.0783C2.24453 55.398 1.59766 56.2953 1.59766 57.3062V66.1817H5.12017L5.11929 58.9972C5.11929 58.4927 5.44214 58.0448 5.9207 57.8853L8.95498 56.8744Z" fill="#7AD7EE"/>
<path d="M12.1666 49.7423C8.27549 49.7423 5.12109 46.588 5.12109 42.6969V38C5.12109 36.0544 6.69829 34.4774 8.64375 34.4774H15.6892C17.6348 34.4774 19.2119 36.0546 19.2119 38V42.697C19.212 46.5881 16.0576 49.7423 12.1666 49.7423Z" fill="#F4AA73"/>
<path d="M8.64375 42.697V34.4774C6.69814 34.4774 5.12109 36.0546 5.12109 38V42.2091C5.12109 45.2804 6.90132 48.1654 9.76245 49.2818C11.2518 49.8629 12.6517 49.8406 13.9279 49.5115C10.8907 48.7282 8.64375 45.9787 8.64375 42.697Z" fill="#E29A6C"/>
<path d="M72.7931 55.0783L68.1564 53.5328C67.677 53.3729 67.3536 52.9243 67.3536 52.4187V47.3939H60.3081V52.4187L58.2383 59.1475L74.399 57.3062C74.3989 56.2955 73.752 55.3979 72.7931 55.0783Z" fill="#E29A6C"/>
<path d="M56.7884 66.1817L56.7874 58.1524L60.6231 56.8744C62.0113 56.4112 63.07 55.3473 63.5507 54.0288C63.7122 53.5859 64.1135 53.2796 64.5837 53.2476C65.5385 53.1827 66.4806 52.9643 67.3908 52.6339C67.3772 52.5626 67.3565 52.4933 67.3565 52.4187V47.3939H60.3111V52.4187C60.3111 52.9241 59.9876 53.3729 59.5081 53.5328L54.8714 55.0783C53.9124 55.3979 53.2656 56.2955 53.2656 57.3063V63.8332C53.2656 65.1302 54.3171 66.1817 55.6141 66.1817H56.7884Z" fill="#D48C64"/>
<path d="M72.7961 55.0783L68.1695 53.5361L64.5383 56.2594C64.1209 56.5725 63.5468 56.5725 63.1293 56.2594L59.4981 53.5361L53.2656 57.3063V66.1818H74.4019V57.3063C74.4019 56.2953 73.755 55.398 72.7961 55.0783Z" fill="#B3E1F8"/>
<path d="M60.6228 56.8744C61.3272 56.6394 61.9393 56.2429 62.4416 55.7438L59.4979 53.5361L54.8714 55.0783C53.9124 55.398 53.2656 56.2955 53.2656 57.3062V63.8333C53.2656 65.1302 54.3171 66.1817 55.6141 66.1817H56.7881L56.7871 58.1524L60.6228 56.8744Z" fill="#7AD7EE"/>
<path d="M48.5656 74.4014C50.5111 74.4014 52.0883 72.8242 52.0883 70.8787C52.0883 68.9332 50.5111 67.356 48.5656 67.356C46.6201 67.356 45.043 68.9332 45.043 70.8787C45.043 72.8242 46.6201 74.4014 48.5656 74.4014Z" fill="#736572"/>
<path d="M63.8306 49.7423C59.9396 49.7423 56.7852 46.588 56.7852 42.6969V39.1742C56.7852 36.5801 58.8881 34.4774 61.4822 34.4774H66.1792C68.7733 34.4774 70.8762 36.5803 70.8762 39.1742V42.6969C70.8761 46.5881 67.7217 49.7423 63.8306 49.7423Z" fill="#F4AA73"/>
<path d="M68.5281 66.1817C69.8251 66.1817 70.8766 65.1302 70.8766 63.8332C70.8766 62.5362 69.8251 61.4848 68.5281 61.4848C67.2311 61.4848 66.1797 62.5362 66.1797 63.8332C66.1797 65.1302 67.2311 66.1817 68.5281 66.1817Z" fill="#736572"/>
<path d="M19.2119 41.5227C14.8412 41.5227 11.7721 39.5705 10.4887 38.5726C10.0699 38.247 9.49263 38.2439 9.06826 38.5622L5.12109 41.5225V37.9999C5.12109 36.0543 6.69829 34.4772 8.64375 34.4772H15.6892C17.6348 34.4772 19.2119 36.0544 19.2119 37.9999V41.5227Z" fill="#DBD8DB"/>
<path d="M60.3078 42.697V34.6435C58.2856 35.1673 56.7852 36.9882 56.7852 39.1744V42.697C56.7852 46.5881 59.9396 49.7425 63.8306 49.7425C64.44 49.7425 65.0281 49.6569 65.5919 49.5116C62.5549 48.7282 60.3078 45.9787 60.3078 42.697Z" fill="#E29A6C"/>
<path d="M5.12109 38V41.5227L8.64375 38.8807V34.4774C6.69829 34.4774 5.12109 36.0544 5.12109 38Z" fill="#C9C5C9"/>
<path d="M56.7488 58.786L46.0049 54.1848C44.7094 53.6299 43.8692 52.3561 43.8692 50.9466V43.8712H32.1269V50.9464C32.1269 52.3559 31.2866 53.6297 29.991 54.1846L19.2472 58.7858C17.0877 59.7106 15.6875 61.8337 15.6875 64.1829V72.0528H60.3085V64.1829C60.3085 61.8337 58.9082 59.7107 56.7488 58.786Z" fill="#FBBD80"/>
<path d="M32.1257 43.8712V50.9464C32.1257 52.3559 31.2855 53.6297 29.99 54.1846L19.2461 58.7858L20.6321 62.0242L31.3769 57.4224C33.3536 56.5755 34.7868 54.8959 35.3605 52.897C35.4861 52.4598 35.69 52.0492 36.0115 51.7275C36.5156 51.2236 37.1944 50.9107 37.9072 50.9174C39.9643 50.9368 41.9644 50.556 43.8679 49.8242V43.8709H32.1257V43.8712Z" fill="#F4AA73"/>
<path d="M37.9979 8.6441C28.9187 8.6441 21.5586 16.0042 21.5586 25.0835V30.9547H37.9979V8.6441Z" fill="#FF744D"/>
<path d="M38 8.6441C47.0792 8.6441 54.4394 16.0042 54.4394 25.0835V30.9547H38V8.6441Z" fill="#FFAA5A"/>
<path d="M23.3183 28.6061H25.0796C26.3766 28.6061 27.4281 27.5546 27.4281 26.2577V26.253V25.0834C27.4281 22.4893 29.531 20.3864 32.1251 20.3864H43.8674C46.4615 20.3864 48.5645 22.4893 48.5645 25.0834V26.2577C48.5645 27.5546 49.6159 28.6061 50.9129 28.6061H52.5065C54.0421 28.6061 55.4415 29.7109 55.5945 31.2389C55.7706 32.9961 54.3954 34.4773 52.6742 34.4773H50.9129C50.9129 41.611 45.13 47.3939 37.9963 47.3939C30.8627 47.3939 25.0798 41.6108 25.0799 34.4772H23.4859C21.9503 34.4772 20.5509 33.3723 20.398 31.8443C20.2221 30.0872 21.5973 28.6061 23.3183 28.6061Z" fill="#FFD18D"/>
<path d="M32.8843 27.8699C37.9666 26.9129 42.7976 25.038 47.2424 22.298L47.5001 22.1392C46.6389 21.0783 45.3405 20.3864 43.8676 20.3864H32.1252C29.5311 20.3864 27.4282 22.4893 27.4282 25.0834V26.253V26.2577C27.4282 27.5546 26.3767 28.6061 25.0798 28.6061H23.3184C21.5972 28.6061 20.2222 30.0872 20.398 31.8444C20.5511 33.3724 21.9503 34.4773 23.486 34.4773H25.0801C25.0798 41.611 30.8628 47.394 37.9963 47.394C39.7181 47.394 41.358 47.0504 42.8599 46.4391L40.557 46.0158C34.9909 44.9917 30.951 40.1394 30.951 34.4775V30.1719C30.9509 29.0488 31.764 28.0809 32.8843 27.8699Z" fill="#FBBD80"/>
<path d="M37.9994 20.3864C43.1875 20.3864 47.3933 16.1806 47.3933 10.9925C47.3933 5.80442 43.1875 1.59863 37.9994 1.59863C32.8113 1.59863 28.6055 5.80442 28.6055 10.9925C28.6055 16.1806 32.8113 20.3864 37.9994 20.3864Z" fill="#FFAA5A"/>
<path d="M37.9973 8.6441C43.3173 8.6441 48.0331 11.1821 51.0377 15.1013C44.1673 21.3043 35.066 25.0833 25.0807 25.0833C23.8954 25.0833 22.7247 25.0215 21.5664 24.9173C21.6565 15.9156 28.9741 8.6441 37.9973 8.6441Z" fill="#FF8B57"/>
<path d="M19.2103 74.4014H60.3085V64.1829C60.3085 61.8337 58.9083 59.7108 56.7488 58.7858L48.8696 55.4113L39.3008 61.7904C38.512 62.3163 37.4842 62.3163 36.6954 61.7904L27.1266 55.4113L19.2472 58.7858C17.0877 59.7108 15.6875 61.8337 15.6875 64.1829L19.2103 74.4014Z" fill="#7AD7EE"/>
<path d="M27.0876 55.3229L19.2472 58.7858C17.0877 59.7106 15.6875 61.8337 15.6875 64.1829V74.4014H19.2102V64.1819C19.2102 63.2416 19.7686 62.3942 20.6333 62.0243L30.7427 57.5703L27.0876 55.3229Z" fill="#4BC3EF"/>
<path d="M57.1825 57.776L46.4388 53.1748C45.5459 52.7924 44.9691 51.9178 44.9691 50.9464V46.6332C48.8763 44.3841 51.6034 40.3057 51.9719 35.5758H52.6772C53.8151 35.5758 54.9056 35.0917 55.6693 34.2478C56.4325 33.4042 56.8047 32.2676 56.6908 31.1293C56.5983 30.2075 56.1687 29.3769 55.5277 28.7439C55.5334 28.6987 55.5372 28.6528 55.5372 28.6061V25.0833C55.5372 19.3442 52.7662 14.2401 48.4917 11.0387C48.4906 5.254 43.784 0.5 37.9992 0.5C32.2173 0.5 27.5131 5.24902 27.507 11.0296C26.9915 11.4153 26.4942 11.8301 26.0187 12.2751C22.775 15.3104 20.8169 19.4145 20.5052 23.8317C20.4624 24.437 20.9184 24.9623 21.5237 25.0051C22.1263 25.0468 22.6542 24.5918 22.697 23.9866C22.9695 20.1242 24.6825 16.5349 27.52 13.8797C30.3709 11.2118 34.0925 9.74272 37.9992 9.74272C46.4581 9.74272 53.3399 16.6244 53.3399 25.0834V27.5892C53.0704 27.5362 52.7928 27.5076 52.5095 27.5076H50.9159C50.2267 27.5076 49.6661 26.947 49.6661 26.2578V25.4828C49.6661 23.1081 48.3228 21.0412 46.355 20.0018C47.3665 19.4021 47.948 18.9919 48.0316 18.932C48.5251 18.5795 48.6393 17.8941 48.2871 17.4005C47.9351 16.9068 47.2491 16.792 46.7552 17.1436C46.6803 17.1969 39.1459 22.4888 28.4558 23.8607C27.2452 24.0162 26.3323 25.0445 26.3323 26.2577C26.3323 26.9469 25.7717 27.5075 25.0825 27.5075H23.3213C22.1834 27.5075 21.093 27.9916 20.3292 28.8355C19.5661 29.679 19.1937 30.8155 19.3077 31.9537C19.511 33.9849 21.3475 35.576 23.4889 35.576H24.0262C24.2827 38.9054 25.7024 42.0009 28.089 44.3875C28.9786 45.2771 29.9672 46.0317 31.0292 46.6426V50.9464C31.0292 51.9178 30.4523 52.7924 29.5595 53.1748L18.8159 57.776C16.2488 58.8755 14.5898 61.3903 14.5898 64.1829V74.4014C14.5898 75.0083 15.0816 75.5 15.6885 75.5C16.2954 75.5 16.7871 75.0083 16.7871 74.4014V64.1829C16.7871 62.2706 17.9229 60.5485 19.6809 59.7958L26.3322 56.9473V63.9088H22.7341C20.8333 63.9088 19.287 65.4553 19.287 67.3559V72.0528C19.287 73.9536 20.8334 75.4999 22.7341 75.4999C23.341 75.4999 23.8327 75.0081 23.8327 74.4012C23.8327 73.7943 23.341 73.3026 22.7341 73.3026C22.0449 73.3026 21.4843 72.742 21.4843 72.0528V67.3559C21.4843 66.6667 22.0449 66.1061 22.7341 66.1061H32.128C32.8172 66.1061 33.3778 66.6667 33.3778 67.3559V72.0528C33.3778 72.742 32.8172 73.3026 32.128 73.3026C31.5211 73.3026 31.0293 73.7943 31.0293 74.4012C31.0293 75.0081 31.5211 75.4999 32.128 75.4999C34.0288 75.4999 35.575 73.9534 35.575 72.0528V67.3559C35.575 65.4551 34.0286 63.9088 32.128 63.9088H28.5297V57.6664L36.0872 62.7047C36.668 63.0919 37.3336 63.2854 37.9994 63.2854C38.665 63.2854 39.3308 63.0917 39.9116 62.7046L47.469 57.6663V66.3903C45.4496 66.8847 43.9462 68.7088 43.9462 70.8786C43.9462 73.4268 46.0192 75.5 48.5676 75.5C51.1159 75.5 53.1889 73.4269 53.1889 70.8786C53.1889 68.709 51.6857 66.8848 49.6663 66.3903V56.9472L56.3177 59.7957C58.0755 60.5485 59.2113 62.2706 59.2113 64.1828V74.4014C59.2113 75.0083 59.7031 75.5 60.31 75.5C60.9169 75.5 61.4086 75.0083 61.4086 74.4014V64.1829C61.4085 61.3903 59.7495 58.8755 57.1825 57.776ZM29.8302 9.56064C30.5109 5.66694 33.9136 2.69727 37.9992 2.69727C42.0877 2.69727 45.4925 5.67119 46.1697 9.56899C43.7282 8.27803 40.9478 7.54546 37.9992 7.54546C35.1179 7.54546 32.3251 8.24551 29.8302 9.56064ZM26.1814 34.4772C26.1814 34.1858 26.0657 33.9065 25.8596 33.7002C25.6537 33.4943 25.3742 33.3786 25.0827 33.3786L23.4888 33.3787C22.4625 33.3787 21.5864 32.6567 21.4941 31.7349C21.4411 31.2055 21.606 30.6994 21.9584 30.3097C22.3065 29.9252 22.8032 29.7046 23.3213 29.7046H25.0825C26.9833 29.7046 28.5296 28.1582 28.5296 26.2528C28.5296 26.1449 28.6162 26.0552 28.7354 26.0401C35.0263 25.2326 40.2089 23.1813 43.6151 21.4875C45.7531 21.5636 47.4687 23.3265 47.4687 25.4825V26.2575C47.4687 28.1583 49.0151 29.7046 50.9158 29.7046H52.5094C53.5356 29.7046 54.4119 30.4266 54.5042 31.3483C54.5572 31.8777 54.3923 32.3838 54.0398 32.7734C53.6919 33.158 53.1952 33.3786 52.677 33.3786L50.9156 33.3787C50.3089 33.3787 49.8171 33.8706 49.8171 34.4773C49.8171 40.9937 44.5157 46.2953 37.9992 46.2953C34.8425 46.2953 31.8747 45.066 29.6426 42.8338C27.4107 40.6017 26.1814 37.6339 26.1814 34.4772ZM38.6925 60.8763C38.2715 61.1571 37.7271 61.1573 37.3058 60.8765L29.4252 55.6227L30.4248 55.1946C32.1268 54.4656 33.2266 52.7981 33.2266 50.9464V47.6623C34.7367 48.2078 36.346 48.4925 37.9994 48.4925C39.6744 48.4925 41.2815 48.1962 42.7718 47.6548V50.9464C42.7718 52.7981 43.8716 54.4656 45.5736 55.1946L46.5732 55.6227L38.6925 60.8763ZM50.9914 70.8786C50.9914 72.2152 49.904 73.3027 48.5673 73.3027C47.2307 73.3027 46.1432 72.2152 46.1432 70.8786C46.1432 69.5419 47.2307 68.4545 48.5673 68.4545C49.904 68.4545 50.9914 69.5419 50.9914 70.8786Z" fill="black"/>
<path d="M32.1299 29.8559C31.523 29.8559 31.0312 30.3476 31.0312 30.9545V32.1287C31.0312 32.7356 31.523 33.2274 32.1299 33.2274C32.7368 33.2274 33.2285 32.7356 33.2285 32.1287V30.9545C33.2285 30.3478 32.7368 29.8559 32.1299 29.8559Z" fill="black"/>
<path d="M43.8721 33.2274C44.479 33.2274 44.9707 32.7356 44.9707 32.1287V30.9545C44.9707 30.3476 44.479 29.8559 43.8721 29.8559C43.2652 29.8559 42.7734 30.3476 42.7734 30.9545V32.1287C42.7734 32.7356 43.2652 33.2274 43.8721 33.2274Z" fill="black"/>
<path d="M42.3709 37.3011C41.9848 36.833 41.2926 36.7665 40.8243 37.1521C40.1124 37.739 39.083 38.0756 38.0004 38.0756C36.9177 38.0756 35.8884 37.739 35.1765 37.1521C34.7081 36.766 34.0157 36.8328 33.6299 37.3011C33.2439 37.7693 33.3105 38.4617 33.7788 38.8477C34.8937 39.7667 36.3932 40.2728 38.0004 40.2728C39.6076 40.2728 41.107 39.7667 42.2219 38.8477C42.6902 38.4617 42.7569 37.7694 42.3709 37.3011Z" fill="black"/>
<path d="M73.141 54.0361L68.5046 52.4907C68.4735 52.4803 68.4527 52.4513 68.4527 52.4188V49.3977C70.579 47.9267 71.9754 45.4725 71.9754 42.697V39.1744C71.9754 35.9787 69.3754 33.3787 66.1799 33.3787H61.483C58.2875 33.3787 55.6875 35.9787 55.6875 39.1744V42.697C55.6875 45.4725 57.0841 47.9268 59.2103 49.3978V52.4188C59.2103 52.4514 59.1894 52.4803 59.1586 52.4905L57.613 53.0057C57.0374 53.1976 56.7262 53.8199 56.9181 54.3953C57.0716 54.8558 57.5002 55.1469 57.9602 55.1469C58.0753 55.1469 58.1925 55.1286 58.3077 55.0902L59.2972 54.7603L62.4678 57.1382C62.8693 57.4394 63.3504 57.5898 63.8317 57.5898C64.3128 57.5898 64.7938 57.4394 65.1954 57.1382L67.43 55.4624V60.5667C66.0665 61.0265 65.0815 62.3166 65.0815 63.8333C65.0815 65.734 66.628 67.2803 68.5286 67.2803C70.4292 67.2803 71.9757 65.7339 71.9757 63.8333C71.9757 62.3167 70.9907 61.0266 69.6272 60.5667V55.1809L72.4466 56.1206C72.9577 56.2909 73.3012 56.7673 73.3012 57.3062V66.1817C73.3012 66.7886 73.793 67.2803 74.3999 67.2803C75.0067 67.2803 75.4985 66.7886 75.4985 66.1817V57.3062C75.498 55.82 74.5507 54.5059 73.141 54.0361ZM57.8845 42.6969V39.1742C57.8845 37.19 59.4987 35.5758 61.4827 35.5758H66.1796C68.1637 35.5758 69.7778 37.1901 69.7778 39.1742V42.6969C69.7778 45.9759 67.1101 48.6437 63.831 48.6437C60.552 48.6437 57.8845 45.9759 57.8845 42.6969ZM63.8764 55.3805C63.8498 55.4003 63.8124 55.4005 63.7859 55.3804L61.1736 53.4213C61.3236 53.1162 61.4071 52.7752 61.4071 52.4186V50.4724C62.1731 50.7118 62.9873 50.8408 63.8312 50.8408C64.675 50.8408 65.4892 50.7116 66.2553 50.4724V52.4186C66.2553 52.7752 66.339 53.1162 66.4888 53.4213L63.8764 55.3805ZM68.5282 65.0831C67.839 65.0831 67.2784 64.5225 67.2784 63.8333C67.2784 63.1441 67.839 62.5835 68.5282 62.5835C69.2174 62.5835 69.778 63.1441 69.778 63.8333C69.778 64.5225 69.2174 65.0831 68.5282 65.0831Z" fill="black"/>
<path d="M10.803 57.138C11.2045 57.4394 11.6855 57.5898 12.1669 57.5898C12.648 57.5898 13.129 57.4394 13.5307 57.1382L16.7013 54.7603L17.6908 55.09C17.806 55.1286 17.9231 55.1467 18.0383 55.1467C18.4982 55.1467 18.9269 54.8557 19.0804 54.3951C19.2723 53.8196 18.9611 53.1973 18.3854 53.0056L16.8402 52.4905C16.8091 52.4801 16.7883 52.4511 16.7883 52.4186V49.3977C18.9146 47.9267 20.3111 45.4723 20.3111 42.6969V38C20.3111 35.4518 18.2381 33.3786 15.6897 33.3786H8.64409C6.09585 33.3786 4.0228 35.4516 4.0228 38V42.6969C4.0228 45.4723 5.41924 47.9265 7.54546 49.3975V52.4186C7.54546 52.4513 7.52451 52.4801 7.4936 52.4904L2.85723 54.0359C1.44731 54.5059 0.5 55.82 0.5 57.3062V66.1817C0.5 66.7886 0.991748 67.2803 1.59863 67.2803C2.20552 67.2803 2.69727 66.7886 2.69727 66.1817V57.3062C2.69727 56.7673 3.04077 56.2909 3.552 56.1206L7.54546 54.7893V60.386H6.29565C5.04233 60.386 4.0228 61.4057 4.0228 62.659V65.0075C4.0228 66.2608 5.04233 67.2803 6.29565 67.2803C6.90254 67.2803 7.39429 66.7886 7.39429 66.1817C7.39429 65.5748 6.90254 65.0831 6.29565 65.0831C6.25405 65.0831 6.22007 65.0492 6.22007 65.0075V62.659C6.22007 62.6173 6.25391 62.5833 6.29565 62.5833H10.9925C11.0343 62.5833 11.0683 62.6171 11.0683 62.659V65.0075C11.0683 65.0491 11.0344 65.0831 10.9925 65.0831C10.3856 65.0831 9.8939 65.5748 9.8939 66.1817C9.8939 66.7886 10.3856 67.2803 10.9925 67.2803C12.2458 67.2803 13.2655 66.2608 13.2655 65.0075V62.659C13.2655 61.4057 12.2458 60.386 10.9925 60.386H9.74272V56.3429L10.803 57.138ZM8.64409 35.5758H15.6896C17.0262 35.5758 18.1137 36.6633 18.1137 38V40.3782C14.5899 40.0843 12.1186 38.448 11.1636 37.7054C10.359 37.0798 9.22622 37.071 8.40942 37.6835L6.22021 39.3255V38C6.22007 36.6633 7.30742 35.5758 8.64409 35.5758ZM6.22007 42.6969V42.072L9.72764 39.4411C9.74448 39.4284 9.77847 39.4118 9.81465 39.4399C11.2187 40.5314 14.079 42.3009 18.1136 42.5819V42.6967C18.1136 45.9758 15.4458 48.6436 12.1667 48.6436C8.88769 48.6436 6.22007 45.9759 6.22007 42.6969ZM12.1669 50.841C13.0106 50.841 13.825 50.7119 14.5909 50.4726V52.4188C14.5909 52.7753 14.6744 53.1163 14.8244 53.4214L12.2122 55.3804C12.1855 55.4004 12.148 55.4004 12.1215 55.3804L9.50923 53.4213C9.65923 53.1162 9.74272 52.7752 9.74272 52.4186V50.4724C10.5087 50.7119 11.323 50.841 12.1669 50.841Z" fill="black"/>
</g>
<defs>
<clipPath id="clip0_242_2619">
<rect width="75" height="75" fill="white" transform="translate(0.5 0.5)"/>
</clipPath>
</defs>
</svg>
