<svg width="76" height="76" viewBox="0 0 76 76" fill="none" xmlns="http://www.w3.org/2000/svg">
<g clip-path="url(#clip0_242_2695)">
<path d="M58.5005 28.7114H3.5793C2.49136 28.7114 1.60938 29.5934 1.60938 30.6813V61.4025H60.4703V30.6812C60.4705 29.5933 59.5885 28.7114 58.5005 28.7114Z" fill="#EEDFDA"/>
<path d="M58.484 28.7114H55.2695C56.3667 28.7114 57.256 29.6007 57.256 30.6979V61.4025H60.4705V30.6979C60.4705 29.6007 59.581 28.7114 58.484 28.7114Z" fill="#C9BEB9"/>
<path d="M53.7506 45.6572C53.6085 44.9983 53.6401 44.3138 53.8442 43.6713C54.1396 42.7405 54.2994 41.7496 54.2994 40.7209V29.2622C54.2994 28.2428 54.1427 27.2601 53.8524 26.3365C53.6512 25.6968 53.6205 25.0158 53.7618 24.3602L54.5788 20.5711C54.7399 19.8239 54.0756 19.1596 53.3284 19.3207L49.6446 20.115C48.9706 20.2603 48.27 20.2247 47.6156 20.0076C46.6518 19.6877 45.6215 19.5135 44.5503 19.5135H17.4825C16.4112 19.5135 15.381 19.6877 14.4172 20.0076C13.7628 20.2248 13.0622 20.2603 12.3882 20.115L8.70441 19.3207C7.95719 19.1596 7.29289 19.8239 7.45402 20.5711L8.27096 24.3602C8.41232 25.0158 8.38156 25.6968 8.18043 26.3365C7.8901 27.2601 7.73336 28.2428 7.73336 29.2622V40.7209C7.73336 41.7496 7.89318 42.7405 8.18864 43.6713C8.39269 44.3138 8.42418 44.9983 8.28224 45.6572L7.45402 49.499C7.29289 50.2462 7.95719 50.9105 8.70441 50.7494L12.5463 49.9212C13.2051 49.7791 13.8897 49.8107 14.5321 50.0148C15.4629 50.3103 16.4539 50.4701 17.4825 50.4701H44.5503C45.5789 50.4701 46.5699 50.3103 47.5007 50.0148C48.1431 49.8107 48.8277 49.7792 49.4865 49.9212L53.3284 50.7494C54.0756 50.9105 54.7399 50.2462 54.5788 49.499L53.7506 45.6572Z" fill="#80B4FB"/>
<path d="M53.7504 45.6572C53.6083 44.9983 53.64 44.3138 53.844 43.6713C54.1395 42.7405 54.2993 41.7496 54.2993 40.7209V29.2622C54.2993 28.2428 54.1425 27.2601 53.8522 26.3365C53.6511 25.6968 53.6203 25.0158 53.7617 24.3602L54.5786 20.5711C54.7398 19.8239 54.0755 19.1596 53.3282 19.3207L49.6444 20.115C48.9955 20.2549 48.322 20.2253 47.6887 20.0291C47.7059 20.0961 47.7237 20.1627 47.7444 20.2288C48.0347 21.1524 48.1915 22.1352 48.1915 23.1545V34.6133C48.1915 35.6419 48.0317 36.633 47.7362 37.5636C47.5323 38.2061 47.5007 38.8906 47.6426 39.5495L48.4708 43.3914C48.632 44.1386 47.9676 44.8029 47.2204 44.6417L43.3786 43.8135C42.7197 43.6714 42.0352 43.7031 41.3927 43.9071C40.4619 44.2026 39.471 44.3624 38.4423 44.3624H11.3747C10.3461 44.3624 9.35509 44.2026 8.42433 43.9071C8.36354 43.8878 8.30202 43.8715 8.24049 43.8553C8.39562 44.4436 8.41085 45.0608 8.28224 45.6573L7.45402 49.4992C7.29289 50.2464 7.95719 50.9107 8.70441 50.7496L12.5463 49.9213C13.2051 49.7792 13.8897 49.8109 14.5321 50.0149C15.4629 50.3104 16.4539 50.4702 17.4825 50.4702H44.5503C45.5789 50.4702 46.5699 50.3104 47.5006 50.0149C48.1431 49.811 48.8277 49.7794 49.4865 49.9213L53.3284 50.7496C54.0756 50.9107 54.7399 50.2464 54.5788 49.4992L53.7504 45.6572Z" fill="#61A2F9"/>
<path d="M43.3474 41.7123H18.6812C11.5417 41.7123 5.75391 47.5001 5.75391 54.6396V61.0086H56.2746V54.6396C56.2746 47.5001 50.4869 41.7123 43.3474 41.7123Z" fill="#F9F5F5"/>
<path d="M43.2385 41.7123H37.7812C44.9811 41.7123 50.8178 47.549 50.8178 54.7489V61.0087H56.275V54.7489C56.275 47.5489 50.4384 41.7123 43.2385 41.7123Z" fill="#EEDFDA"/>
<path d="M35.3762 45.193H26.6526C25.5479 45.193 24.6523 44.2975 24.6523 43.1927V36.0938H37.3764V43.1927C37.3764 44.2974 36.4808 45.193 35.3762 45.193Z" fill="#FFCBBE"/>
<path d="M34.0952 36.0938V43.1757C34.0952 44.2898 33.1921 45.1928 32.0781 45.1928H35.3591C36.4731 45.1928 37.3762 44.2898 37.3762 43.1757V36.0938H34.0952Z" fill="#FFA68D"/>
<path d="M35.9694 14.5216H26.0586C23.4698 14.5216 21.3711 16.6203 21.3711 19.2091V26.0456H40.6569V19.2091C40.6569 16.6203 38.5583 14.5216 35.9694 14.5216Z" fill="#C56E37"/>
<path d="M35.9285 14.5216H33.5508C35.9864 14.5216 37.9608 16.4961 37.9608 18.9317V26.0456H40.6557V19.2487C40.6556 16.638 38.5392 14.5216 35.9285 14.5216Z" fill="#8F4E24"/>
<path d="M22.4103 28.7996C22.9846 30.5656 23.5739 32.3731 22.0676 32.863C20.5614 33.3528 18.63 31.5658 18.0556 29.7997C17.4812 28.0337 18.2369 26.2048 19.7432 25.715C21.2495 25.2253 21.8359 27.0336 22.4103 28.7996Z" fill="#FFCBBE"/>
<path d="M39.6194 28.7996C39.0451 30.5656 38.4558 32.3731 39.9621 32.863C41.4684 33.3528 43.3998 31.5658 43.9741 29.7997C44.5485 28.0337 43.7928 26.2048 42.2865 25.715C40.7802 25.2253 40.1938 27.0336 39.6194 28.7996Z" fill="#FFCBBE"/>
<path d="M35.3371 20.2836H26.691C23.7528 20.2836 21.3711 22.6654 21.3711 25.6035V31.867C21.3711 37.1481 25.6522 41.4292 30.9333 41.4292H31.0949C36.3759 41.4292 40.6571 37.1481 40.6571 31.867V25.6035C40.6569 22.6654 38.2751 20.2836 35.3371 20.2836Z" fill="#FFCBBE"/>
<path d="M36.8468 20.5137C36.9959 21.0064 37.0769 21.5286 37.0769 22.0698V28.2077C37.0769 33.5333 32.7596 37.8506 27.434 37.8506C25.6902 37.8506 24.0561 37.3854 22.6445 36.5757C24.3074 39.4748 27.4308 41.4292 31.0126 41.4292C36.3382 41.4292 40.6555 37.1119 40.6555 31.7863V25.6484C40.6555 23.2268 39.0508 21.1807 36.8468 20.5137Z" fill="#FFA68D"/>
<path d="M39.6194 28.7996C39.0451 30.5656 38.4558 32.3731 39.9621 32.8629C41.4684 33.3528 43.3998 31.5658 43.9741 29.7996C44.5485 28.0336 43.7928 26.2048 42.2865 25.7149C40.7802 25.2252 40.1938 27.0336 39.6194 28.7996Z" fill="#FFA68D"/>
<path d="M69.0038 29.5055H68.9128C65.9385 29.5055 63.5273 27.0944 63.5273 24.12V14.4264C63.5273 13.8916 63.9609 13.4582 64.4956 13.4582H73.421C73.9559 13.4582 74.3893 13.8918 74.3893 14.4264V24.12C74.3893 27.0942 71.9782 29.5055 69.0038 29.5055Z" fill="#F9F5F5"/>
<path d="M73.415 13.458H70.1737C70.7131 13.458 71.1502 13.8953 71.1502 14.4345V24.0745C71.1502 26.5095 69.5477 28.5701 67.3398 29.2594C67.8517 29.4192 68.396 29.5055 68.9605 29.5055C71.96 29.5055 74.3916 27.074 74.3916 24.0745V14.4345C74.3915 13.8953 73.9543 13.458 73.415 13.458Z" fill="#EEDFDA"/>
<path d="M63.5273 18.73V24.0745C63.5273 27.0739 65.9588 29.5055 68.9584 29.5055C71.9578 29.5055 74.3895 27.074 74.3895 24.0745V18.73H63.5273Z" fill="#BED8FB"/>
<path d="M71.1502 18.73V24.0745C71.1502 26.5095 69.5477 28.5701 67.3398 29.2594C67.8517 29.4192 68.396 29.5055 68.9605 29.5055C71.96 29.5055 74.3916 27.074 74.3916 24.0745V18.73H71.1502Z" fill="#9DC6FB"/>
<path d="M41.8468 50.0015H20.1978C13.9616 50.0015 8.29971 52.4582 4.12578 56.456C2.53438 57.9803 1.63672 60.0901 1.63672 62.2938V66.7209C1.63672 67.1791 2.0082 67.5506 2.46641 67.5506H59.6234C60.0816 67.5506 60.4531 67.1791 60.4531 66.7209V62.3365C60.4531 60.1401 59.56 58.038 57.9791 56.5131C53.7995 52.4814 48.1128 50.0015 41.8468 50.0015Z" fill="#80B4FB"/>
<path d="M57.978 56.5133C53.7982 52.4815 48.1116 50.0016 41.8457 50.0016H31.2461C37.5121 50.0016 43.1988 52.4816 47.3784 56.5133C48.9593 58.0382 49.8524 60.1402 49.8524 62.3366V66.7211C49.8524 67.1793 49.4809 67.5507 49.0227 67.5507H59.6223C60.0805 67.5507 60.452 67.1793 60.452 66.7211V62.3366C60.452 60.1402 59.5589 58.038 57.978 56.5133Z" fill="#61A2F9"/>
<path d="M26.6385 29.2672C27.368 29.1946 27.9006 28.5443 27.828 27.8148C27.7554 27.0853 27.1052 26.5527 26.3756 26.6253C25.6461 26.6979 25.1135 27.3481 25.1861 28.0777C25.2587 28.8072 25.909 29.3398 26.6385 29.2672Z" fill="black"/>
<path d="M35.6737 29.263C36.4032 29.1904 36.9358 28.5402 36.8632 27.8107C36.7906 27.0811 36.1403 26.5485 35.4108 26.6211C34.6813 26.6937 34.1487 27.344 34.2213 28.0735C34.2939 28.8031 34.9441 29.3356 35.6737 29.263Z" fill="black"/>
<path d="M32.8385 32.6628H28.85C28.2382 32.6628 27.7422 33.1588 27.7422 33.7707C27.7422 34.3827 28.2382 34.8786 28.85 34.8786H32.8385C33.4504 34.8786 33.9464 34.3826 33.9464 33.7707C33.9464 33.1588 33.4504 32.6628 32.8385 32.6628Z" fill="black"/>
<path d="M73.4145 12.3501H70.0678V9.55728H74.391C75.0028 9.55728 75.4988 9.06128 75.4988 8.44941C75.4988 7.83755 75.0028 7.34155 74.391 7.34155H17.4474C16.8355 7.34155 16.3395 7.83755 16.3395 8.44941C16.3395 9.06128 16.8355 9.55728 17.4474 9.55728H67.8521V12.3501H64.5055C63.3562 12.3501 62.4211 13.2853 62.4211 14.4345V24.0745C62.4463 25.1504 62.6529 26.2684 63.3692 27.4625C63.9668 28.4451 64.8165 29.2581 65.8272 29.8123L65.1036 30.9756C64.0244 32.7106 63.9241 34.9224 64.8417 36.7479L67.8507 42.7341C68.5786 44.1822 68.2632 45.9671 67.084 47.0779L61.5768 52.0606V30.6979C61.5768 28.9916 60.1887 27.6036 58.4825 27.6036H55.28C55.1968 27.0617 55.0729 26.5273 54.9084 26.004C54.7654 25.5491 54.743 25.0613 54.8439 24.5935L55.6607 20.8045C55.816 20.0841 55.5978 19.343 55.0767 18.8218C54.5557 18.3008 53.8143 18.0818 53.0938 18.2376C51.9455 18.389 49.1343 19.3855 47.9637 18.9559C47.5268 18.8108 47.0766 18.6929 46.626 18.605C46.0257 18.489 45.4438 18.8804 45.3269 19.481C45.21 20.0816 45.6021 20.6633 46.2027 20.7802C46.5607 20.8499 46.9184 20.9437 47.2659 21.0589C48.1046 21.3373 49.0076 21.3854 49.8772 21.1978L53.4765 20.4219L52.6779 24.1266C52.2625 25.7151 53.2218 27.4268 53.1906 29.2622V40.7209C53.1906 41.6132 53.0548 42.493 52.7872 43.3361C52.7018 43.6049 52.6424 43.8803 52.604 44.1583C50.1077 41.9485 46.8279 40.6046 43.2395 40.6046H38.4856V39.5158C40.0266 38.0275 41.1291 36.0784 41.5619 33.8702C43.163 33.3329 44.5231 31.694 45.0277 30.1426C45.79 27.7985 44.714 25.3398 42.6292 24.6617C42.6291 24.6616 42.6291 24.6616 42.6291 24.6616C42.4017 24.5879 42.1023 24.5226 41.7666 24.5274V19.249C41.7666 16.0316 39.149 13.4139 35.9315 13.4139H26.0996C23.1687 13.4139 20.7364 15.5864 20.3264 18.4054H17.4815C15.9144 18.2461 14.3311 19.1952 12.6208 19.0319L8.93691 18.2375C8.2165 18.0821 7.47515 18.3008 6.95425 18.8218C6.4332 19.343 6.21494 20.0841 6.37021 20.8045L7.18701 24.5936C7.28794 25.0615 7.26567 25.5491 7.12256 26.0041C6.95806 26.5273 6.83413 27.0617 6.75093 27.6036H3.93975V11.9447C3.93975 10.6284 5.01069 9.55728 6.327 9.55728H12.351C12.9629 9.55728 13.4589 9.06128 13.4589 8.44941C13.4589 7.83755 12.9629 7.34155 12.351 7.34155H6.327C3.78887 7.34155 1.72388 9.40654 1.72388 11.9447V28.2387C0.981787 28.8044 0.5 29.6948 0.5 30.6979L0.527539 66.7209C0.527539 67.7892 1.39678 68.6586 2.46509 68.6586H59.6221C60.6906 68.6586 61.5597 67.7894 61.5597 66.7209L61.5767 55.0486L68.5783 48.7139C68.5832 48.7095 68.588 48.7051 68.5927 48.7005C70.4883 46.9234 70.9972 44.0606 69.8303 41.7389L66.8212 35.7526C66.2479 34.612 66.3106 33.23 66.9849 32.1459L67.9837 30.5401C68.3023 30.588 68.6281 30.6132 68.9599 30.6132C69.2917 30.6132 68.9599 30.6132 68.9599 30.6132C71.3261 30.6132 73.4026 29.35 74.5508 27.4625C74.9728 26.8396 75.5272 25.3342 75.4988 24.0745V14.4346C75.499 13.2853 74.5638 12.3501 73.4145 12.3501ZM59.3609 30.6979V54.0651L58.1501 55.1606C57.8974 54.9324 57.6412 54.7092 57.3805 54.4927C57.333 51.8362 56.5498 49.3565 55.226 47.2486C55.0628 46.284 54.5697 45.0803 54.899 44.0064C55.2356 42.9463 55.4063 41.8408 55.4063 40.7208V29.8193H58.4825C58.9669 29.8193 59.3609 30.2135 59.3609 30.6979ZM25.7614 41.1639C27.3214 42.0395 29.1162 42.5371 31.0155 42.5371C32.9149 42.5371 34.7095 42.0395 36.2696 41.1639V43.1757C36.2696 43.677 35.8616 44.085 35.3604 44.085H26.6706C26.1692 44.085 25.7614 43.677 25.7614 43.1757V41.1639ZM41.9437 26.7686C42.8666 27.0687 43.3048 28.2749 42.9204 29.4572C42.5437 30.6154 41.3604 31.7933 40.5315 31.8352C39.9923 31.8623 39.5511 32.2742 39.4871 32.8102C38.9754 37.0922 35.3335 40.3213 31.0156 40.3213C26.6977 40.3213 23.0557 37.0922 22.5441 32.8102C22.4801 32.2741 22.0389 31.8623 21.4997 31.8352C20.6708 31.7933 19.4875 30.6156 19.1108 29.4572C18.7263 28.2749 19.1646 27.0688 20.0875 26.7687C20.1339 26.7537 20.1704 26.7418 20.2049 26.7418C20.2771 26.7418 20.341 26.7935 20.4704 26.9749C20.75 27.3676 21.251 27.5349 21.7101 27.3876C22.2819 27.2249 22.5897 26.4184 22.4807 25.6484C22.4807 23.3012 24.3903 21.3916 26.7377 21.3916H35.2938C37.6411 21.3916 39.5508 23.3012 39.5508 25.6484C39.5258 26.2382 39.4818 27.0257 40.3215 27.3876C40.7806 27.5349 41.2817 27.3676 41.5612 26.9749C41.7521 26.7066 41.8004 26.7223 41.9437 26.7686ZM22.4804 19.2488C22.4804 17.2531 24.1041 15.6296 26.0996 15.6296H35.9313C37.9269 15.6296 39.5505 17.2531 39.5505 19.2488V20.7783C38.4116 19.7816 36.9223 19.1759 35.2936 19.1759H26.7374C25.1086 19.1759 23.6193 19.7816 22.4804 20.7783V19.2488ZM12.1539 21.1978C13.0234 21.385 13.9263 21.337 14.7654 21.0588C15.6402 20.7685 16.5541 20.6211 17.4816 20.6211H20.2647V24.5271C19.9292 24.5221 19.6294 24.5875 19.4021 24.6616C17.3173 25.3396 16.2412 27.7982 17.0035 30.1424C17.508 31.6941 18.868 33.3329 20.4693 33.87C20.9022 36.0783 22.0046 38.0274 23.5457 39.5157V40.6045H18.7918C15.2035 40.6045 11.9236 41.9483 9.4272 44.1583C9.38882 43.8802 9.32935 43.6048 9.24409 43.3361C8.97647 42.4931 8.84067 41.613 8.84067 40.7209V29.2622C8.74678 27.6775 9.76382 25.9499 9.35337 24.1266L8.55474 20.4219L12.1539 21.1978ZM2.71587 30.6979C2.71587 30.2135 3.10991 29.8194 3.59448 29.8194H6.62466V40.7209C6.62466 41.841 6.79531 42.9465 7.13193 44.0066C7.4668 44.6822 6.95776 46.5172 6.80483 47.2487C5.47944 49.3594 4.6959 51.8426 4.65034 54.5029C4.20767 54.8709 3.77656 55.2553 3.35806 55.6561C3.13159 55.873 2.91743 56.1011 2.71572 56.3388V30.6979H2.71587ZM59.3439 66.4427H2.74341V62.2938C2.74341 60.3995 3.52622 58.5635 4.89087 57.2561C7.95371 54.3223 11.7594 52.3413 15.8962 51.5267C16.4965 51.4085 16.8875 50.826 16.7693 50.2257C16.6511 49.6251 16.0684 49.2339 15.4682 49.3527C12.4511 49.9465 9.59639 51.1071 7.03203 52.7595C7.98213 47.1261 12.8921 42.8202 18.7915 42.8202H23.5454V43.1757C23.5454 44.899 24.9472 46.3008 26.6705 46.3008H35.3602C37.0834 46.3008 38.4852 44.899 38.4852 43.1757V42.8202H43.239C49.1334 42.8202 54.0397 47.1186 54.9958 52.745C51.1035 50.2395 46.5679 48.8936 41.8452 48.8936H20.8496C20.2377 48.8936 19.7417 49.3896 19.7417 50.0015C19.7417 50.6135 20.2377 51.1093 20.8496 51.1093H41.8457C46.8743 51.1093 51.6701 52.7873 55.5652 55.873C55.5755 55.8815 55.5863 55.8894 55.5969 55.8976C56.1534 56.3401 56.6914 56.8114 57.2089 57.3106C58.566 58.6194 59.3441 60.4512 59.3441 62.3365V66.4427H59.3439ZM73.2831 14.566V17.6221H64.6369V14.566H73.2831ZM72.9428 25.7557C72.5142 27.0195 70.6442 28.4898 68.9599 28.3975C66.5762 28.3975 64.6369 26.4582 64.6369 24.0745V19.8378H73.2831V24.0745C73.2204 24.6676 73.3124 24.7593 72.9428 25.7557Z" fill="black"/>
</g>
<defs>
<clipPath id="clip0_242_2695">
<rect width="75" height="75" fill="white" transform="translate(0.5 0.5)"/>
</clipPath>
</defs>
</svg>
