<svg width="76" height="76" viewBox="0 0 76 76" fill="none" xmlns="http://www.w3.org/2000/svg">
<path d="M63.442 49.8881H45.773C43.4058 53.6335 40.8087 57.2284 37.9965 60.6524C35.1843 57.2284 32.5871 53.6335 30.2199 49.8881H12.551L4.19141 71.8051H71.8016L63.442 49.8881Z" fill="#DFEEF4"/>
<path d="M37.9985 4.19727C33.2262 4.19742 28.6494 6.09328 25.2749 9.4678C21.9004 12.8423 20.0045 17.4191 20.0044 22.1914C19.8989 39.3594 37.9985 60.6523 37.9985 60.6523C37.9985 60.6523 56.0981 39.3594 55.9926 22.1914C55.9925 17.4191 54.0966 12.8423 50.7221 9.4678C47.3476 6.09328 42.7708 4.19742 37.9985 4.19727ZM37.9985 29.8262C36.4885 29.8262 35.0124 29.3784 33.7569 28.5395C32.5013 27.7006 31.5228 26.5082 30.9449 25.1131C30.367 23.718 30.2159 22.1829 30.5104 20.7019C30.805 19.2209 31.5322 17.8606 32.5999 16.7928C33.6677 15.7251 35.028 14.9979 36.509 14.7033C37.99 14.4088 39.5251 14.5599 40.9202 15.1378C42.3153 15.7157 43.5077 16.6942 44.3466 17.9498C45.1855 19.2053 45.6333 20.6814 45.6333 22.1914C45.6337 23.1941 45.4364 24.1871 45.0529 25.1136C44.6693 26.04 44.107 26.8818 43.398 27.5909C42.6889 28.2999 41.8471 28.8622 40.9207 29.2458C39.9942 29.6293 39.0012 29.8266 37.9985 29.8262Z" fill="#F45858"/>
<path d="M65.3867 54.9687L31.6484 66.9688L18.5 49.8887H30.2246C32.5912 53.634 35.188 57.2288 38 60.6523C40.812 57.2288 43.4088 53.634 45.7754 49.8887H63.4473L65.3867 54.9687Z" fill="#F2DA30"/>
<path d="M18.0547 71.8051L51.4508 59.9258L60.5938 71.8051H18.0547Z" fill="#3EA2E5"/>
<path d="M52.4909 13.359C52.6338 13.5886 52.8617 13.7525 53.1248 13.815C53.388 13.8774 53.6651 13.8334 53.896 13.6924C54.1268 13.5515 54.2926 13.325 54.3572 13.0624C54.4219 12.7998 54.3802 12.5223 54.2411 12.2903C53.7038 11.4115 53.0963 10.5775 52.4247 9.7965C52.2461 9.59539 51.9955 9.47256 51.7271 9.4545C51.4586 9.43643 51.1939 9.52457 50.9899 9.69993C50.7858 9.87528 50.6589 10.1238 50.6364 10.3919C50.6139 10.66 50.6977 10.9261 50.8697 11.133C51.4689 11.8303 52.0111 12.5747 52.4909 13.359Z" fill="black"/>
<path d="M29.3398 22.192C29.3401 23.9044 29.8481 25.5783 30.7996 27.002C31.7512 28.4258 33.1035 29.5353 34.6856 30.1905C36.2678 30.8456 38.0086 31.0169 39.6881 30.6827C41.3676 30.3485 42.9103 29.5238 44.1211 28.3128C45.3319 27.1019 46.1564 25.5591 46.4904 23.8796C46.8243 22.2 46.6528 20.4592 45.9974 18.8771C45.3421 17.2951 44.2323 15.9429 42.8085 14.9916C41.3846 14.0402 39.7107 13.5324 37.9982 13.5324C35.7025 13.5351 33.5016 14.4483 31.8783 16.0718C30.2551 17.6952 29.3422 19.8963 29.3398 22.192ZM44.6059 22.192C44.6056 23.4988 44.2179 24.7762 43.4917 25.8627C42.7655 26.9492 41.7335 27.7959 40.5261 28.2958C39.3187 28.7958 37.9901 28.9264 36.7084 28.6713C35.4268 28.4163 34.2495 27.7869 33.3255 26.8627C32.4016 25.9386 31.7724 24.7612 31.5175 23.4795C31.2626 22.1978 31.3936 20.8693 31.8937 19.6619C32.3939 18.4546 33.2408 17.4227 34.3274 16.6967C35.414 15.9707 36.6914 15.5832 37.9982 15.5832C39.7503 15.5851 41.4301 16.282 42.6689 17.521C43.9077 18.76 44.6043 20.4399 44.6059 22.192Z" fill="black"/>
<path d="M7.0227 64.383C7.14845 64.4313 7.28249 64.4543 7.41714 64.4507C7.55179 64.447 7.68439 64.4169 7.80736 64.3619C7.93032 64.3069 8.04123 64.2282 8.13372 64.1303C8.22621 64.0324 8.29846 63.9171 8.34634 63.7912L9.28384 61.3303C9.37379 61.0779 9.36134 60.8003 9.24917 60.5569C9.137 60.3135 8.93401 60.1237 8.68365 60.0282C8.4333 59.9326 8.15548 59.9388 7.90966 60.0455C7.66384 60.1522 7.46956 60.3509 7.36841 60.5991L6.43091 63.06C6.3828 63.1857 6.35996 63.3197 6.36367 63.4542C6.36738 63.5888 6.39759 63.7213 6.45255 63.8442C6.50751 63.9671 6.58616 64.0779 6.68399 64.1704C6.78182 64.2628 6.89692 64.3351 7.0227 64.383Z" fill="black"/>
<path d="M72.7607 71.4389L64.4017 49.5248C64.3276 49.3308 64.1963 49.1639 64.0252 49.046C63.8542 48.9282 63.6514 48.8651 63.4437 48.8651H47.6234C47.7201 48.7074 47.8161 48.5545 47.9128 48.3963C54.0001 38.3182 57.0634 29.5022 57.0195 22.1967C57.021 20.3388 56.7504 18.4906 56.2161 16.7111C56.1378 16.4507 55.9592 16.232 55.7197 16.1032C55.4802 15.9745 55.1993 15.9461 54.9388 16.0244C54.6784 16.1027 54.4597 16.2813 54.3309 16.5209C54.2021 16.7604 54.1738 17.0413 54.2521 17.3018C54.7292 18.8915 54.9707 20.5427 54.9687 22.2026C55.0572 36.7631 41.44 54.7274 37.9982 59.0352C34.5564 54.7291 20.9386 36.7695 21.0271 22.192C21.0275 19.0857 21.8804 16.0391 23.4928 13.3841C25.1052 10.7291 27.4153 8.5674 30.1714 7.1346C32.9275 5.70179 36.0239 5.05279 39.1234 5.25829C42.2229 5.46378 45.2065 6.51589 47.7493 8.30001C47.9719 8.45642 48.2474 8.51803 48.5154 8.47127C48.7833 8.42451 49.0217 8.27323 49.1782 8.0507C49.3346 7.82816 49.3962 7.55261 49.3494 7.28466C49.3027 7.0167 49.1514 6.7783 48.9288 6.62189C46.0792 4.62231 42.7355 3.44294 39.262 3.21222C35.7885 2.98149 32.3182 3.70826 29.2291 5.31338C26.1401 6.91849 23.5506 9.34042 21.7428 12.3154C19.935 15.2904 18.9781 18.7044 18.9763 22.1856C18.9324 29.4975 21.9956 38.3147 28.0829 48.3916C28.1796 48.5516 28.2757 48.7045 28.3724 48.8604H12.5521C12.3444 48.8604 12.1416 48.9236 11.9705 49.0414C11.7995 49.1592 11.6682 49.3261 11.5941 49.5201L9.19173 55.826C9.14372 55.9518 9.12095 56.0858 9.12474 56.2204C9.12852 56.355 9.15878 56.4876 9.21379 56.6105C9.32488 56.8587 9.53004 57.0527 9.78411 57.1496C10.0382 57.2466 10.3204 57.2387 10.5686 57.1276C10.8168 57.0165 11.0108 56.8113 11.1077 56.5572L13.2605 50.9111H17.9949L29.9708 66.4766L17.8753 70.7785H5.68197L6.63001 68.2912C6.72075 68.0385 6.70874 67.7603 6.59655 67.5163C6.48437 67.2724 6.28097 67.0821 6.03005 66.9865C5.77913 66.8909 5.50072 66.8976 5.25464 67.005C5.00856 67.1124 4.81444 67.3121 4.714 67.5611L3.23568 71.4395C3.17625 71.5947 3.15549 71.7621 3.17519 71.9271C3.1949 72.0921 3.25447 72.2499 3.34878 72.3868C3.44309 72.5237 3.56929 72.6355 3.71649 72.7127C3.86369 72.7899 4.02747 72.8301 4.19368 72.8299H71.8027C71.969 72.8302 72.1328 72.79 72.2801 72.7127C72.4273 72.6355 72.5536 72.5236 72.6479 72.3866C72.7422 72.2497 72.8018 72.0918 72.8214 71.9267C72.8411 71.7616 72.8202 71.5941 72.7607 71.4389ZM20.5812 50.9129H29.6574C31.9695 54.5274 34.4935 58.0021 37.216 61.3186C37.3122 61.4317 37.4319 61.5226 37.5668 61.585C37.7016 61.6473 37.8484 61.6796 37.997 61.6796C38.1456 61.6796 38.2924 61.6473 38.4272 61.585C38.5621 61.5226 38.6818 61.4317 38.7781 61.3186C41.5005 58.0021 44.0245 54.5274 46.3367 50.9129H62.7353L64.0478 54.3553L32.0035 65.7541L20.5812 50.9129ZM31.9677 67.9414H31.9736L51.091 61.1445L58.506 70.7791H23.9943L31.9677 67.9414ZM61.0964 70.7774L53.1224 60.4186L64.7826 56.2719L70.3156 70.7791L61.0964 70.7774Z" fill="black"/>
</svg>
